<svg width="170" height="71" viewBox="0 0 170 71" fill="none" xmlns="http://www.w3.org/2000/svg">
<path fill-rule="evenodd" clip-rule="evenodd" d="M70.6136 48.3731C70.4121 49.2414 69.984 49.9169 69.3295 50.3998C68.6749 50.8804 67.8845 51.123 66.9582 51.123C66.3172 51.123 65.7578 51.021 65.2822 50.8192C64.8066 50.6175 64.4079 50.3363 64.0886 49.9804C63.767 49.6245 63.5292 49.2051 63.3752 48.7222C63.2212 48.2394 63.1419 47.7202 63.1419 47.1603V42.3407C63.1419 41.8533 63.2189 41.3772 63.3752 40.9124C63.5292 40.4477 63.7647 40.0374 64.0795 39.6815C64.3944 39.3256 64.7884 39.0399 65.2641 38.8245C65.7397 38.6092 66.3036 38.5026 66.9582 38.5026C67.957 38.5026 68.7678 38.7656 69.3929 39.287C70.0157 39.8107 70.4302 40.4658 70.6318 41.2502L68.6885 41.8918C68.6523 41.715 68.5934 41.5404 68.5096 41.3749C68.4258 41.2072 68.3126 41.0575 68.1721 40.9192C68.0294 40.7832 67.8573 40.6721 67.6557 40.5905C67.4542 40.5067 67.2209 40.4658 66.9604 40.4658C66.6524 40.4658 66.3874 40.5203 66.1677 40.6268C65.948 40.7333 65.7669 40.8739 65.6242 41.0462C65.4815 41.2185 65.375 41.4112 65.3026 41.6265C65.2301 41.8419 65.1961 42.055 65.1961 42.2704V47.2147C65.1961 47.4754 65.2323 47.727 65.3026 47.9651C65.3728 48.2031 65.4838 48.4117 65.6332 48.5885C65.7827 48.7676 65.9662 48.9081 66.1859 49.0079C66.4056 49.1099 66.6637 49.1598 66.9604 49.1598C67.3998 49.1598 67.7735 49.0351 68.0838 48.7835C68.3918 48.5341 68.5889 48.1895 68.6727 47.7497L70.6136 48.3731Z" fill="#005CA2"/>
<path fill-rule="evenodd" clip-rule="evenodd" d="M72.2013 51.0142V38.5933H79.1001V40.484H74.2329V43.8051H78.4229V45.6618H74.2329V49.0872H79.1001V51.0142H72.2013Z" fill="#005CA2"/>
<path fill-rule="evenodd" clip-rule="evenodd" d="M86.1438 47.2215C86.1438 46.6956 86.0124 46.2716 85.7519 45.9497C85.4915 45.6255 85.0566 45.4646 84.4496 45.4646H82.6672V49.0872H84.4678C84.7871 49.0872 85.0566 49.0396 85.2695 48.9444C85.4847 48.8492 85.6545 48.7132 85.7859 48.5409C85.9173 48.3686 86.0101 48.1668 86.0622 47.9401C86.1166 47.7134 86.1438 47.4731 86.1438 47.2215ZM85.9648 42.055C85.9648 41.554 85.8312 41.1618 85.564 40.8762C85.2967 40.5905 84.8664 40.4477 84.2707 40.4477H82.6649V43.6963H84.2888C84.8709 43.6963 85.2967 43.5444 85.564 43.2406C85.8312 42.9391 85.9648 42.5424 85.9648 42.055ZM88.1391 47.3371C88.1391 48.5273 87.822 49.4363 87.1856 50.0688C86.5492 50.6991 85.6976 51.0142 84.6263 51.0142H80.6311V38.5933H84.4293C85.607 38.5933 86.488 38.8971 87.0769 39.5046C87.6657 40.1122 87.9602 40.9374 87.9602 41.9847C87.9602 42.5084 87.8492 42.989 87.6295 43.4288C87.4098 43.8686 87.0135 44.22 86.445 44.483V44.5714C86.7417 44.6666 86.9976 44.8071 87.2105 44.9908C87.4257 45.1744 87.6001 45.392 87.736 45.6414C87.8718 45.8908 87.9738 46.1628 88.0394 46.453C88.1074 46.7477 88.1391 47.0424 88.1391 47.3371Z" fill="#005CA2"/>
<path fill-rule="evenodd" clip-rule="evenodd" d="M89.9759 51.0142V38.5933H96.8769V40.484H92.0097V43.8051H96.1997V45.6618H92.0097V49.0872H96.8769V51.0142H89.9759Z" fill="#005CA2"/>
<path fill-rule="evenodd" clip-rule="evenodd" d="M103.936 42.386C103.936 41.7716 103.787 41.3001 103.49 40.9737C103.194 40.6472 102.741 40.484 102.136 40.484H100.442V44.322H102.154C102.761 44.322 103.209 44.1474 103.499 43.7983C103.792 43.4492 103.936 42.9777 103.936 42.386ZM105.952 42.4313C105.952 42.9663 105.875 43.4673 105.721 43.9298C105.567 44.3945 105.338 44.7981 105.035 45.1427C104.731 45.4872 104.349 45.757 103.884 45.9542C103.42 46.1515 102.881 46.249 102.263 46.249H100.444V51.0142H98.4125V38.5933H102.156C102.738 38.5933 103.262 38.6704 103.726 38.8268C104.19 38.981 104.589 39.2167 104.919 39.5318C105.252 39.847 105.508 40.246 105.685 40.7288C105.862 41.2072 105.952 41.7762 105.952 42.4313Z" fill="#005CA2"/>
<path fill-rule="evenodd" clip-rule="evenodd" d="M112.568 42.3089C112.568 42.1548 112.541 41.9734 112.489 41.7626C112.434 41.554 112.344 41.3545 112.212 41.1641C112.081 40.9737 111.906 40.8104 111.687 40.6721C111.467 40.5361 111.184 40.4681 110.84 40.4681C110.495 40.4681 110.206 40.5316 109.975 40.6563C109.744 40.781 109.558 40.9374 109.422 41.121C109.286 41.3046 109.186 41.5064 109.128 41.7195C109.069 41.9349 109.039 42.1366 109.039 42.327L109.057 47.0832C109.057 47.6794 109.193 48.1804 109.467 48.5862C109.741 48.992 110.206 49.1938 110.858 49.1938C111.322 49.1938 111.723 49.0351 112.06 48.72C112.4 48.4049 112.568 47.9719 112.568 47.4233V42.3089ZM114.636 47.2487C114.636 47.8449 114.543 48.3799 114.359 48.856C114.174 49.3321 113.913 49.7401 113.573 50.0779C113.234 50.4179 112.833 50.6764 112.371 50.8532C111.906 51.0323 111.397 51.1207 110.837 51.1207C110.16 51.1207 109.578 51.0119 109.089 50.792C108.602 50.5721 108.208 50.2751 107.904 49.8988C107.601 49.5248 107.379 49.0895 107.236 48.5953C107.094 48.1011 107.021 47.5797 107.021 47.0333V42.3384C107.021 41.8986 107.089 41.452 107.227 41.0009C107.363 40.5497 107.583 40.1371 107.886 39.7699C108.19 39.4004 108.582 39.0966 109.064 38.8585C109.544 38.6205 110.138 38.5026 110.837 38.5026C111.492 38.5026 112.056 38.616 112.532 38.8427C113.007 39.0671 113.404 39.3618 113.718 39.7245C114.033 40.0873 114.264 40.4976 114.414 40.9555C114.563 41.4134 114.636 41.8737 114.636 42.3384V47.2487Z" fill="#005CA2"/>
<path d="M121.625 45.4464H116.312V47.2147H121.625V45.4464Z" fill="#005CA2"/>
<path fill-rule="evenodd" clip-rule="evenodd" d="M122.8 48.2303C122.907 48.194 123.047 48.1487 123.219 48.0966C123.392 48.0421 123.573 47.9832 123.763 47.9175C123.953 47.8517 124.134 47.7905 124.307 47.7293C124.479 47.6704 124.619 47.6228 124.726 47.5865C124.821 48.0988 125.04 48.4933 125.385 48.7721C125.729 49.051 126.139 49.1915 126.614 49.1915C127.149 49.1915 127.568 49.0215 127.871 48.6769C128.175 48.3323 128.327 47.8721 128.327 47.2918C128.327 47.0311 128.299 46.7885 128.247 46.5641C128.193 46.3396 128.102 46.1401 127.971 45.9701C127.84 45.7978 127.668 45.6618 127.455 45.5621C127.24 45.4623 126.972 45.4102 126.653 45.4102H125.69V43.6782H126.671C127.169 43.6782 127.563 43.5286 127.849 43.2293C128.134 42.9301 128.277 42.4993 128.277 41.9371C128.277 41.4815 128.141 41.1142 127.867 40.8331C127.593 40.552 127.208 40.4114 126.707 40.4114C126.22 40.4114 125.819 40.5543 125.505 40.8399C125.19 41.1255 124.972 41.4951 124.855 41.9462L122.982 41.2684C123.183 40.4137 123.609 39.7359 124.257 39.2349C124.904 38.7339 125.733 38.4845 126.744 38.4845C127.896 38.4845 128.782 38.7633 129.4 39.3233C130.019 39.8832 130.327 40.7039 130.327 41.7875C130.327 41.9893 130.306 42.2228 130.265 42.4835C130.222 42.7464 130.152 43.0049 130.05 43.2588C129.948 43.515 129.808 43.753 129.622 43.9729C129.436 44.1928 129.203 44.3628 128.918 44.4807V44.5532C129.215 44.6734 129.461 44.8366 129.658 45.0429C129.853 45.2515 130.012 45.4872 130.132 45.748C130.25 46.0109 130.331 46.2807 130.372 46.5595C130.413 46.8384 130.435 47.1104 130.435 47.3711C130.435 47.99 130.342 48.5318 130.159 48.9966C129.975 49.4613 129.713 49.8512 129.375 50.1663C129.036 50.4814 128.632 50.7195 128.164 50.8804C127.693 51.0414 127.174 51.1207 126.603 51.1207C125.582 51.1207 124.735 50.8691 124.062 50.3635C123.387 49.8603 122.968 49.1484 122.8 48.2303Z" fill="#005CA2"/>
<path fill-rule="evenodd" clip-rule="evenodd" d="M135.176 44.0182L134.535 46.5165H137.067L136.444 44.0364C136.419 43.9298 136.381 43.7507 136.328 43.5014C136.276 43.252 136.215 42.9913 136.149 42.717C136.084 42.4427 136.023 42.1842 135.962 41.9417C135.903 41.6968 135.866 41.5223 135.855 41.4157H135.767L135.176 44.0182ZM137.529 48.3369H134.088C134.064 48.4434 134.016 48.6225 133.946 48.8719C133.876 49.1212 133.801 49.3887 133.724 49.6744C133.647 49.96 133.574 50.2275 133.509 50.4769C133.443 50.7263 133.393 50.9054 133.357 51.0119H131.235L134.818 38.591H136.779L140.38 51.0119H138.222L137.529 48.3369Z" fill="#005CA2"/>
<path fill-rule="evenodd" clip-rule="evenodd" d="M147.032 51.0142V40.4681H143.662V51.0142H141.628V38.5933H149.064V51.0142H147.032Z" fill="#005CA2"/>
<path fill-rule="evenodd" clip-rule="evenodd" d="M154.234 44.0182L153.593 46.5165H156.126L155.503 44.0364C155.478 43.9298 155.439 43.7507 155.387 43.5014C155.335 43.252 155.274 42.9913 155.208 42.717C155.143 42.4427 155.081 42.1842 155.02 41.9417C154.961 41.6968 154.925 41.5223 154.914 41.4157H154.825L154.234 44.0182ZM156.588 48.3369H153.147C153.122 48.4434 153.077 48.6225 153.005 48.8719C152.934 49.1212 152.86 49.3887 152.783 49.6744C152.706 49.96 152.633 50.2275 152.567 50.4769C152.502 50.7263 152.452 50.9054 152.416 51.0119H150.294L153.876 38.591H155.838L159.439 51.0119H157.281L156.588 48.3369Z" fill="#005CA2"/>
<path fill-rule="evenodd" clip-rule="evenodd" d="M166.983 49.1938V40.45H163.917L163.774 44.1792C163.751 44.7142 163.726 45.2311 163.704 45.7321C163.679 46.2308 163.64 46.6956 163.588 47.124C163.536 47.5525 163.461 47.9424 163.366 48.2915C163.271 48.6429 163.14 48.9444 162.974 49.1938H166.983ZM161.582 53.5668H159.817V49.3366C159.971 49.3139 160.121 49.2867 160.263 49.2573C160.406 49.2278 160.553 49.1938 160.71 49.1598C160.97 48.9331 161.176 48.6724 161.323 48.3754C161.473 48.0784 161.591 47.7112 161.679 47.2782C161.767 46.8452 161.831 46.3328 161.867 45.7434C161.903 45.154 161.933 44.4626 161.955 43.6646L162.134 38.5956H168.981C168.981 40.3684 168.983 42.1344 168.99 43.8958C168.997 45.6573 168.999 47.4233 168.999 49.196H169.98V53.5691H168.215V51.0142H161.582V53.5668Z" fill="#005CA2"/>
<path fill-rule="evenodd" clip-rule="evenodd" d="M154.832 61.6645V68.0665H153.915V61.6645H151.963V60.8779H156.8V61.6645H154.832ZM150.271 68.0642V64.7839H147.256V68.0642H146.339V60.862H147.256V64.0109H150.271V60.862H151.188V68.0642H150.271ZM144.285 63.9247C144.285 63.5915 144.262 63.2831 144.219 62.9998C144.176 62.7164 144.099 62.4716 143.988 62.2653C143.877 62.0612 143.721 61.9003 143.524 61.7892C143.327 61.6759 143.069 61.6214 142.749 61.6214C142.439 61.6214 142.183 61.6804 141.981 61.7983C141.778 61.9162 141.617 62.0794 141.497 62.2902C141.375 62.501 141.291 62.7481 141.243 63.0315C141.196 63.3149 141.166 63.6232 141.157 63.9564H144.289V63.9247H144.285ZM144.998 66.8265C144.815 67.2436 144.532 67.57 144.153 67.8035C143.775 68.037 143.347 68.1549 142.872 68.1549C142.357 68.1549 141.929 68.0801 141.59 67.9282C141.25 67.7763 140.978 67.5474 140.774 67.2345C140.57 66.9239 140.426 66.534 140.337 66.067C140.249 65.6 140.206 65.0514 140.206 64.4189C140.206 63.9632 140.24 63.5144 140.308 63.0791C140.376 62.6416 140.505 62.2539 140.693 61.9116C140.883 61.5716 141.139 61.2973 141.465 61.0864C141.791 60.8779 142.21 60.7736 142.724 60.7736C143.161 60.7736 143.537 60.8484 143.855 61.0003C144.169 61.1522 144.428 61.3607 144.627 61.6282C144.826 61.8958 144.971 62.2131 145.064 62.5826C145.157 62.9522 145.202 63.3557 145.202 63.7932V64.6978H141.123C141.123 65.0967 141.148 65.4549 141.196 65.7768C141.243 66.0988 141.334 66.3753 141.465 66.6088C141.596 66.8423 141.769 67.0237 141.986 67.1484C142.203 67.2753 142.487 67.3388 142.835 67.3388C143.143 67.3388 143.424 67.2527 143.676 67.0758C143.927 66.9013 144.11 66.6882 144.226 66.4343L144.998 66.8265ZM136.489 61.6645V68.0665H135.572V60.8643H139.97V61.6668H136.489V61.6645ZM133.212 64.6819H131.581C131.144 64.6819 130.784 64.7884 130.503 65.0038C130.222 65.2169 130.082 65.5569 130.082 66.0239C130.082 66.4025 130.209 66.7131 130.46 66.9489C130.712 67.1869 131.085 67.3071 131.581 67.3071C131.796 67.3071 131.998 67.2821 132.193 67.2345C132.388 67.1847 132.56 67.1098 132.709 67.0078C132.861 66.9058 132.981 66.7698 133.074 66.5998C133.167 66.4297 133.212 66.2189 133.212 65.965V64.6819ZM133.169 67.4522C132.974 67.7151 132.711 67.8965 132.383 67.9985C132.052 68.1005 131.699 68.1527 131.319 68.1527C130.63 68.1527 130.107 67.9554 129.751 67.561C129.398 67.1665 129.219 66.6746 129.219 66.0806C129.219 65.7791 129.264 65.4935 129.357 65.2214C129.45 64.9494 129.593 64.7159 129.788 64.5209C129.982 64.326 130.229 64.1718 130.53 64.0539C130.832 63.9383 131.192 63.8794 131.608 63.8794H133.212V62.8819C133.212 62.492 133.094 62.1837 132.854 61.957C132.616 61.7325 132.254 61.6192 131.769 61.6192C131.439 61.6192 131.137 61.6759 130.866 61.7869C130.594 61.898 130.385 62.0816 130.238 62.3333C130.132 62.2743 130.014 62.2018 129.887 62.1134C129.76 62.0272 129.645 61.9479 129.538 61.8799C129.742 61.533 130.034 61.261 130.413 61.066C130.791 60.8711 131.244 60.7736 131.767 60.7736C132.098 60.7736 132.408 60.8076 132.7 60.8756C132.992 60.9436 133.244 61.0615 133.454 61.2247C133.665 61.3902 133.83 61.6101 133.95 61.8821C134.07 62.1542 134.129 62.4942 134.129 62.9023V68.0642H133.212V67.4658L133.169 67.4522ZM125.616 61.6192C125.305 61.6192 125.031 61.6894 124.789 61.83C124.547 61.9706 124.359 62.1814 124.223 62.4602C124.116 62.6529 124.048 62.9363 124.019 63.3081C123.989 63.6799 123.976 64.1129 123.976 64.6071C123.976 65.1013 124.001 65.5139 124.048 65.8471C124.096 66.1804 124.189 66.4433 124.325 66.6383C124.585 67.094 125.006 67.3207 125.586 67.3207C125.906 67.3207 126.195 67.2413 126.456 67.0826C126.716 66.9239 126.907 66.6746 127.022 66.3345C127.099 66.1418 127.147 65.8721 127.167 65.5297C127.185 65.1874 127.197 64.8111 127.197 64.4053C127.197 63.97 127.178 63.5915 127.147 63.2673C127.113 62.9431 127.056 62.6937 126.979 62.5192C126.864 62.2199 126.687 61.9932 126.449 61.8436C126.211 61.694 125.935 61.6192 125.616 61.6192ZM125.636 60.7736C126.121 60.7736 126.528 60.8688 126.852 61.057C127.178 61.2451 127.437 61.4922 127.631 61.7937C127.817 62.0476 127.942 62.4149 128.01 62.9023C128.078 63.3897 128.112 63.9134 128.112 64.4779C128.112 64.6524 128.107 64.8451 128.098 65.0537C128.089 65.2622 128.071 65.4708 128.046 65.6816C128.021 65.8902 127.994 66.0874 127.96 66.2733C127.926 66.4569 127.89 66.6134 127.851 66.7403C127.665 67.2663 127.362 67.6358 126.941 67.8489C126.519 68.0642 126.044 68.1708 125.521 68.1708C125.025 68.1708 124.619 68.0778 124.304 67.8942C123.989 67.7083 123.743 67.4703 123.568 67.1801C123.373 66.9171 123.24 66.5567 123.167 66.0942C123.095 65.6318 123.059 65.1058 123.059 64.5119C123.059 64.0449 123.077 63.6096 123.118 63.2061C123.156 62.8025 123.228 62.4648 123.335 62.1927C123.518 61.7371 123.808 61.3857 124.202 61.1431C124.596 60.896 125.074 60.7736 125.636 60.7736ZM119.446 61.6645V68.0665H118.529V60.8643H122.93V61.6668H119.446V61.6645ZM114.631 67.264C114.989 67.264 115.272 67.1869 115.478 67.0305C115.687 66.8741 115.843 66.6655 115.949 66.4025C116.056 66.1396 116.126 65.8403 116.16 65.5025C116.194 65.167 116.21 64.8179 116.21 64.4575C116.21 64.0766 116.192 63.7139 116.16 63.367C116.126 63.0224 116.056 62.7187 115.949 62.4602C115.843 62.2018 115.689 61.9978 115.485 61.8459C115.281 61.694 115.007 61.6192 114.658 61.6192C114.28 61.6192 113.988 61.7099 113.782 61.8889C113.573 62.0703 113.422 62.2993 113.324 62.5758C113.227 62.8547 113.168 63.1585 113.15 63.4894C113.13 63.8204 113.12 64.1378 113.12 64.4393C113.12 64.7318 113.13 65.0446 113.15 65.3756C113.168 65.7066 113.229 66.0103 113.331 66.2892C113.433 66.568 113.582 66.7993 113.78 66.9829C113.981 67.171 114.264 67.264 114.631 67.264ZM113.123 61.694C113.132 61.694 113.141 61.6985 113.152 61.7076C113.374 61.3675 113.637 61.1272 113.936 60.9867C114.237 60.8461 114.561 60.7759 114.91 60.7759C115.403 60.7759 115.798 60.8779 116.092 61.0819C116.386 61.2859 116.611 61.5557 116.76 61.8912C116.91 62.2267 117.009 62.6144 117.059 63.0587C117.107 63.5008 117.132 63.961 117.132 64.437C117.132 64.8927 117.104 65.3438 117.052 65.7859C116.998 66.228 116.889 66.6247 116.726 66.9738C116.561 67.3229 116.327 67.6063 116.022 67.8194C115.718 68.0348 115.313 68.1413 114.81 68.1413C114.443 68.1413 114.128 68.0688 113.866 67.9237C113.605 67.7786 113.367 67.57 113.154 67.2957H113.125V71H112.208V60.8756H113.125V61.694H113.123ZM110.108 63.9247C110.108 63.5915 110.086 63.2831 110.043 62.9998C109.999 62.7164 109.922 62.4716 109.811 62.2653C109.701 62.0612 109.544 61.9003 109.347 61.7892C109.15 61.6759 108.892 61.6214 108.573 61.6214C108.262 61.6214 108.009 61.6804 107.805 61.7983C107.601 61.9162 107.44 62.0794 107.32 62.2902C107.2 62.501 107.114 62.7481 107.066 63.0315C107.019 63.3149 106.989 63.6232 106.98 63.9564H110.113V63.9247H110.108ZM110.822 66.8265C110.638 67.2436 110.355 67.57 109.977 67.8035C109.599 68.037 109.171 68.1549 108.695 68.1549C108.181 68.1549 107.753 68.0801 107.413 67.9282C107.073 67.7763 106.802 67.5474 106.598 67.2345C106.394 66.9239 106.249 66.534 106.161 66.067C106.072 65.6 106.029 65.0514 106.029 64.4189C106.029 63.9632 106.063 63.5144 106.131 63.0791C106.199 62.6416 106.328 62.2539 106.516 61.9116C106.704 61.5716 106.962 61.2973 107.288 61.0864C107.615 60.8779 108.034 60.7736 108.548 60.7736C108.985 60.7736 109.361 60.8484 109.678 61.0003C109.993 61.1522 110.251 61.3607 110.45 61.6282C110.649 61.8958 110.794 62.2131 110.887 62.5826C110.98 62.9522 111.025 63.3557 111.025 63.7932V64.6978H106.946C106.946 65.0967 106.971 65.4549 107.019 65.7768C107.066 66.0988 107.157 66.3753 107.286 66.6088C107.418 66.8423 107.59 67.0237 107.807 67.1484C108.025 67.2753 108.308 67.3388 108.656 67.3388C108.964 67.3388 109.245 67.2527 109.497 67.0758C109.748 66.9013 109.932 66.6882 110.047 66.4343L110.822 66.8265ZM103.814 68.0642V64.7839H100.8V68.0642H99.8824V60.862H100.8V64.0109H103.814V60.862H104.731V68.0642H103.814ZM94.5486 66.4615C94.6551 66.695 94.8295 66.8945 95.0741 67.06C95.3164 67.2255 95.6041 67.3071 95.9347 67.3071C96.2745 67.3071 96.553 67.2345 96.7727 67.0872C96.9901 66.9421 97.1645 66.7494 97.2891 66.5114C97.4159 66.2733 97.5043 65.999 97.5586 65.6862C97.6107 65.3756 97.6424 65.0605 97.6537 64.7386H95.0016V63.995H97.6537C97.6447 63.6731 97.613 63.3693 97.5586 63.0859C97.5043 62.8025 97.4137 62.5509 97.2823 62.331C97.1509 62.1111 96.9766 61.9366 96.7569 61.8096C96.5394 61.6826 96.2541 61.6192 95.9053 61.6192C95.6041 61.6192 95.33 61.6985 95.0809 61.8595C94.834 62.0204 94.6551 62.2358 94.5486 62.5078L93.7763 62.0567C93.962 61.6509 94.2451 61.3358 94.6279 61.1091C95.0107 60.8847 95.45 60.7736 95.9461 60.7736C96.4421 60.7736 96.8588 60.8665 97.1985 61.0502C97.5382 61.2361 97.8078 61.49 98.0093 61.8164C98.2109 62.1428 98.3536 62.526 98.4397 62.968C98.5257 63.4101 98.5687 63.8839 98.5687 64.3894C98.5597 64.9154 98.5167 65.4051 98.4397 65.863C98.3626 66.3187 98.229 66.7177 98.0388 67.0577C97.8485 67.3978 97.579 67.6652 97.2347 67.8602C96.8905 68.0552 96.4466 68.1527 95.903 68.1527C95.3866 68.1527 94.9472 68.0416 94.5849 67.8171C94.2202 67.5927 93.9462 67.2776 93.7627 66.8695L94.5486 66.4615ZM92.2475 65.9287C92.2475 65.5705 92.1388 65.2826 91.9191 65.0673C91.7017 64.8496 91.3393 64.7408 90.8343 64.7408H89.1877V67.2187H90.7323C91.1989 67.2187 91.5681 67.1189 91.8399 66.9217C92.1094 66.7244 92.2475 66.3935 92.2475 65.9287ZM92.1003 62.8025C92.1003 62.4512 91.9712 62.1814 91.7153 61.9864C91.4594 61.7915 91.1083 61.694 90.6644 61.694H89.1855V63.9542H90.635C91.0404 63.9542 91.3869 63.8635 91.67 63.6844C91.9576 63.5031 92.1003 63.2083 92.1003 62.8025ZM93.1354 65.965C93.1354 66.3345 93.0742 66.6496 92.9542 66.9126C92.8319 67.1756 92.6711 67.3909 92.465 67.561C92.2611 67.731 92.0233 67.8579 91.7515 67.9396C91.4798 68.0234 91.1876 68.0642 90.8773 68.0642H88.2705V60.8756H90.9452C91.6473 60.8756 92.1683 61.0502 92.508 61.4015C92.85 61.7507 93.0199 62.2131 93.0199 62.7867C93.0199 63.0973 92.9542 63.3874 92.8205 63.6549C92.6869 63.9224 92.4469 64.1401 92.1026 64.3033H92.1184C92.3132 64.3713 92.474 64.4665 92.6054 64.5889C92.7367 64.7091 92.8409 64.8428 92.9179 64.9902C92.9949 65.1353 93.0516 65.294 93.0855 65.464C93.1195 65.6318 93.1354 65.7995 93.1354 65.965ZM84.4021 61.6192C84.0918 61.6192 83.8178 61.6894 83.5754 61.83C83.3331 61.9706 83.1451 62.1814 83.0092 62.4602C82.9028 62.6529 82.8348 62.9363 82.8054 63.3081C82.7759 63.6799 82.7623 64.1129 82.7623 64.6071C82.7623 65.1013 82.7872 65.5139 82.8348 65.8471C82.8824 66.1804 82.9752 66.4433 83.1111 66.6383C83.3716 67.094 83.7928 67.3207 84.3726 67.3207C84.692 67.3207 84.9819 67.2413 85.2423 67.0826C85.5028 66.9239 85.693 66.6746 85.8086 66.3345C85.8856 66.1418 85.9354 65.8721 85.9535 65.5297C85.9716 65.1874 85.9829 64.8111 85.9829 64.4053C85.9829 63.97 85.9648 63.5915 85.9331 63.2673C85.8991 62.9431 85.8448 62.6937 85.7655 62.5192C85.65 62.2199 85.4734 61.9932 85.2355 61.8436C84.9977 61.694 84.7214 61.6192 84.4021 61.6192ZM84.4247 60.7736C84.9094 60.7736 85.3148 60.8688 85.641 61.057C85.9671 61.2451 86.2253 61.4922 86.4201 61.7937C86.6035 62.0476 86.7303 62.4149 86.7983 62.9023C86.8662 63.3897 86.9002 63.9134 86.9002 64.4779C86.9002 64.6524 86.8957 64.8451 86.8844 65.0537C86.8753 65.2622 86.8572 65.4708 86.8345 65.6816C86.8096 65.8902 86.7802 66.0874 86.7462 66.2733C86.7122 66.4569 86.676 66.6134 86.6375 66.7403C86.4518 67.2663 86.1506 67.6358 85.727 67.8489C85.3035 68.0642 84.8301 68.1708 84.307 68.1708C83.811 68.1708 83.4055 68.0778 83.0907 67.8942C82.7759 67.7083 82.529 67.4703 82.3547 67.1801C82.1599 66.9171 82.0262 66.5567 81.9538 66.0942C81.8813 65.6318 81.8451 65.1058 81.8451 64.5119C81.8451 64.0449 81.8654 63.6096 81.9039 63.2061C81.9424 62.8025 82.0149 62.4648 82.1214 62.1927C82.3048 61.7371 82.5947 61.3857 82.9888 61.1431C83.3829 60.896 83.8608 60.7736 84.4247 60.7736ZM76.004 60.862H76.9213V64.0562H77.9993C78.1352 64.0562 78.2711 64.0449 78.407 64.0199C78.5429 63.995 78.672 63.9451 78.792 63.8658C78.9143 63.7887 79.0253 63.6821 79.1272 63.5461C79.2292 63.4101 79.3152 63.2265 79.3832 62.993L79.9947 60.8643H80.8689L80.271 62.9499C80.1645 63.299 80.0332 63.5937 79.8769 63.8318C79.7206 64.0698 79.5123 64.2285 79.2518 64.3056C79.5825 64.3826 79.8226 64.5481 79.972 64.802C80.1215 65.0537 80.2461 65.362 80.3435 65.7202L81.0139 68.0688H80.0966L79.5145 65.9537C79.4466 65.7202 79.3696 65.5275 79.2812 65.3779C79.1929 65.2282 79.091 65.1104 78.9755 65.0287C78.8577 64.9471 78.7309 64.8904 78.5905 64.861C78.45 64.8315 78.296 64.8179 78.1307 64.8179H76.9213V68.0688H76.004V60.862ZM74.2555 66.4615C74.3824 66.5386 74.5069 66.6088 74.6338 66.6723C74.7606 66.7358 74.892 66.8015 75.0278 66.8695C74.8535 67.2776 74.5817 67.5927 74.2125 67.8171C73.8433 68.0416 73.4017 68.1527 72.8876 68.1527C72.344 68.1527 71.9024 68.0574 71.5626 67.867C71.2229 67.6766 70.9556 67.4159 70.7609 67.0804C70.5661 66.7448 70.4325 66.3436 70.36 65.8766C70.2875 65.4096 70.2513 64.904 70.2513 64.36C70.2513 63.8544 70.2966 63.3829 70.3894 62.9454C70.4823 62.5078 70.6318 62.1293 70.8401 61.8073C71.0485 61.4854 71.3225 61.2338 71.6623 61.0479C72.002 60.8643 72.421 60.7713 72.9147 60.7713C73.4402 60.7713 73.8796 60.8824 74.2329 61.1068C74.5885 61.3313 74.858 61.6464 75.0414 62.0544L74.2691 62.5056C74.1627 62.2335 73.9928 62.0182 73.7595 61.8572C73.5262 61.6963 73.2499 61.6169 72.9283 61.6169C72.5501 61.6169 72.2443 61.6917 72.0111 61.8436C71.7778 61.9955 71.6011 62.1973 71.4788 62.4512C71.3565 62.7051 71.275 62.9975 71.232 63.3285C71.1889 63.6595 71.1663 64.0063 71.1663 64.3668C71.1663 64.7272 71.1867 65.0831 71.2252 65.4345C71.2637 65.7859 71.3475 66.0988 71.472 66.3776C71.5989 66.6542 71.7755 66.8786 72.0043 67.0509C72.233 67.2209 72.532 67.3071 72.9012 67.3071C73.2318 67.3071 73.5127 67.2277 73.7459 67.0668C73.9792 66.9058 74.1491 66.704 74.2555 66.4615ZM67.889 68.0642V58.7605H64.0569V68.0642H63.1396V57.9149H68.8516V68.0642H67.889Z" fill="#005CA2"/>
<path fill-rule="evenodd" clip-rule="evenodd" d="M70.9692 17.6735C70.5117 18.0521 69.975 18.2334 69.3816 18.2334H67.2141V13.3685H69.3476C70.0656 13.3685 70.6272 13.5521 71.0394 13.9239C71.4471 14.2866 71.6577 14.8919 71.6577 15.7375C71.6555 16.6533 71.4267 17.2926 70.9692 17.6735ZM73.8841 11.0924C73.3383 10.5846 72.6679 10.2105 71.8933 9.96797C71.1119 9.7186 70.2671 9.60299 69.3453 9.60299H63.1419V29.1762H67.2118V22.0352H69.5763C70.5117 22.0352 71.3543 21.8856 72.1039 21.5818C72.8491 21.2825 73.4945 20.8631 74.0222 20.3259C74.5341 19.7773 74.9441 19.1153 75.2272 18.3445C75.5035 17.5828 75.6462 16.7282 75.6462 15.7964C75.6462 14.7264 75.4899 13.806 75.1841 13.0216C74.8761 12.2372 74.439 11.6002 73.8841 11.0924Z" fill="#005CA2"/>
<path fill-rule="evenodd" clip-rule="evenodd" d="M87.0769 23.2979C87.0769 23.9576 86.873 24.4654 86.4473 24.844C86.026 25.218 85.5209 25.4085 84.9479 25.4085C84.1394 25.4085 83.5663 25.1682 83.2176 24.6808C82.8688 24.1934 82.6966 23.5745 82.6966 22.8196V15.5629C82.6966 15.3385 82.7374 15.1004 82.8189 14.8488C82.9095 14.5926 83.0386 14.3614 83.2176 14.1438C83.3965 13.9329 83.6252 13.7561 83.9083 13.6133C84.1892 13.4682 84.5402 13.3957 84.9479 13.3957C85.3533 13.3957 85.6998 13.4841 85.9694 13.6337C86.2457 13.8015 86.4631 13.9851 86.633 14.2118C86.7915 14.4408 86.9161 14.6788 86.9818 14.9214C87.0474 15.1594 87.0746 15.3816 87.0746 15.5629V23.2979H87.0769ZM89.6679 11.4438C89.1628 10.8566 88.5196 10.3783 87.7292 10.0133C86.9387 9.64379 86.0147 9.46243 84.9502 9.46243C83.8019 9.46243 82.8303 9.65059 82.0398 10.036C81.2426 10.4191 80.5926 10.9156 80.0921 11.5186C79.5802 12.1171 79.2088 12.7858 78.9868 13.5294C78.7694 14.2639 78.6448 15.0075 78.6448 15.7375V22.7062C78.6448 23.5971 78.7694 24.4382 79.0027 25.2407C79.245 26.0523 79.6119 26.7551 80.1124 27.3649C80.6266 27.9724 81.2721 28.4553 82.0693 28.8112C82.8642 29.1717 83.8336 29.3462 84.9502 29.3462C85.8652 29.3462 86.7009 29.2012 87.4642 28.911C88.2252 28.6208 88.882 28.2037 89.4255 27.6483C89.9895 27.0929 90.413 26.4286 90.7188 25.6442C91.029 24.8689 91.1876 23.9939 91.1876 23.0191V15.7352C91.1876 14.9644 91.0585 14.2073 90.8094 13.4546C90.5489 12.7065 90.1775 12.0309 89.6679 11.4438Z" fill="#005CA2"/>
<path fill-rule="evenodd" clip-rule="evenodd" d="M99.3094 14.8488C99.3818 14.5926 99.5019 14.3614 99.6763 14.1438C99.8416 13.9329 100.068 13.7516 100.34 13.611C100.625 13.4682 100.969 13.4002 101.391 13.4002C101.776 13.4002 102.116 13.475 102.396 13.6201C102.673 13.7743 102.91 13.9579 103.094 14.1551C103.28 14.3637 103.418 14.5926 103.511 14.8488C103.59 15.1004 103.649 15.3271 103.69 15.5062L107.542 14.3523C107.413 13.7198 107.177 13.1055 106.869 12.5093C106.539 11.9199 106.129 11.403 105.624 10.9564C105.123 10.5007 104.509 10.138 103.801 9.86823C103.087 9.59392 102.285 9.4647 101.391 9.4647C100.24 9.4647 99.2731 9.65059 98.4714 10.036C97.6787 10.4236 97.0354 10.9156 96.5349 11.5163C96.0412 12.1171 95.672 12.7858 95.4523 13.5317C95.2236 14.2639 95.1058 15.0075 95.1058 15.7397V22.7108C95.1058 23.5994 95.2304 24.4382 95.4682 25.243C95.7037 26.05 96.0683 26.7551 96.5621 27.3672C97.0558 27.9747 97.7104 28.4576 98.5031 28.8112C99.2935 29.174 100.263 29.353 101.388 29.353C102.974 29.353 104.326 28.9178 105.427 28.0586C106.527 27.1926 107.227 26.0024 107.51 24.4858L103.631 23.3591C103.551 23.9984 103.302 24.4971 102.867 24.8644C102.439 25.2271 101.934 25.413 101.386 25.413C100.569 25.413 100.009 25.1772 99.6763 24.6853C99.3501 24.1979 99.1848 23.579 99.1848 22.8264V15.5674C99.1916 15.3407 99.2233 15.1004 99.3094 14.8488Z" fill="#005CA2"/>
<path fill-rule="evenodd" clip-rule="evenodd" d="M115.154 14.8488C115.234 14.5926 115.356 14.3614 115.517 14.1438C115.689 13.9329 115.915 13.7516 116.192 13.611C116.475 13.4682 116.823 13.4002 117.233 13.4002C117.625 13.4002 117.956 13.475 118.241 13.6201C118.524 13.7743 118.755 13.9579 118.946 14.1551C119.134 14.3637 119.272 14.5926 119.351 14.8488C119.43 15.1004 119.496 15.3271 119.535 15.5062L123.385 14.3523C123.253 13.7198 123.031 13.1055 122.71 12.5093C122.397 11.9199 121.978 11.403 121.473 10.9564C120.966 10.5007 120.354 10.138 119.652 9.86823C118.934 9.59392 118.126 9.4647 117.236 9.4647C116.09 9.4647 115.123 9.65059 114.328 10.036C113.526 10.4236 112.88 10.9156 112.387 11.5163C111.893 12.1171 111.531 12.7858 111.304 13.5317C111.082 14.2639 110.971 15.0075 110.971 15.7397V22.7108C110.971 23.5994 111.082 24.4382 111.32 25.243C111.551 26.05 111.911 26.7551 112.414 27.3672C112.91 27.9747 113.562 28.4576 114.357 28.8112C115.147 29.174 116.108 29.353 117.238 29.353C118.828 29.353 120.173 28.9178 121.281 28.0586C122.384 27.1926 123.074 26.0024 123.358 24.4858L119.485 23.3546C119.412 23.9939 119.149 24.4926 118.721 24.8599C118.293 25.2226 117.8 25.4085 117.236 25.4085C116.427 25.4085 115.861 25.1727 115.535 24.6808C115.204 24.1934 115.041 23.5745 115.041 22.8218V15.5629C115.041 15.3408 115.08 15.1004 115.154 14.8488Z" fill="#005CA2"/>
<path fill-rule="evenodd" clip-rule="evenodd" d="M127.267 29.1762H138.643V25.3269H131.339V21.1647H137.631V17.4196H131.339V13.373H138.643V9.60299H127.267V29.1762Z" fill="#005CA2"/>
<path fill-rule="evenodd" clip-rule="evenodd" d="M140.89 13.3141H145.078V29.1762H149.125V13.3141H153.308V9.60299H140.89V13.3141Z" fill="#005CA2"/>
<path fill-rule="evenodd" clip-rule="evenodd" d="M166.322 9.60299L160.732 20.9652H160.676V9.60299H156.626V29.1762H160.447L165.901 18.5213H165.926V29.1762H170V9.60299H166.322Z" fill="#005CA2"/>
<path fill-rule="evenodd" clip-rule="evenodd" d="M32.1043 16.0753L16.5448 51.4336C19.6771 52.719 23.1061 53.4376 26.7185 53.4376C30.2381 53.4376 33.5946 52.7507 36.6771 51.5061L32.8155 16.1818C32.5663 16.1705 32.3308 16.1365 32.1043 16.0753Z" fill="#005CA2"/>
<path fill-rule="evenodd" clip-rule="evenodd" d="M30.3559 15.0256L1.10298 34.3178C3.10738 41.0689 7.70051 46.6978 13.7273 50.0666L30.8949 15.5153C30.7046 15.3748 30.5144 15.2093 30.3559 15.0256Z" fill="#005CA2"/>
<path fill-rule="evenodd" clip-rule="evenodd" d="M34.145 15.9959L39.6214 50.1119C45.7048 46.7318 50.3387 41.0666 52.3317 34.2475L35.0079 15.5879C34.7497 15.7624 34.4507 15.9007 34.145 15.9959Z" fill="#005CA2"/>
<path fill-rule="evenodd" clip-rule="evenodd" d="M30.7363 9.78208L25.1444 0C17.872 0.419394 11.3786 3.74961 6.81042 8.85261L29.5428 11.5775C29.7511 10.8634 30.1679 10.2445 30.7363 9.78208Z" fill="#005CA2"/>
<path fill-rule="evenodd" clip-rule="evenodd" d="M48.5426 11.2896L36.6046 12.7269C36.5751 13.4251 36.3555 14.0735 35.9908 14.6085L53.1063 30.847C53.3124 29.4981 53.4279 28.1107 53.4279 26.6916C53.4279 20.9516 51.6138 15.64 48.5426 11.2896Z" fill="#005CA2"/>
<path fill-rule="evenodd" clip-rule="evenodd" d="M29.4341 12.974L4.60898 11.6728C1.69864 15.9528 0 21.1193 0 26.6939C0 28.1923 0.124567 29.6727 0.366907 31.1009L29.6334 13.8808C29.5246 13.5974 29.4635 13.2869 29.4341 12.974Z" fill="#005CA2"/>
<path fill-rule="evenodd" clip-rule="evenodd" d="M33.0827 8.96143C34.5549 8.99997 35.8006 9.90903 36.3396 11.1944L46.5337 8.76647C42.004 3.74281 35.5899 0.4602 28.4081 0.00906819L32.1768 9.07251C32.4644 9.00903 32.7657 8.95916 33.0827 8.96143Z" fill="#005CA2"/>
</svg>
