<svg width="80" height="80" viewBox="0 0 80 80" fill="none" xmlns="http://www.w3.org/2000/svg">
<path fill-rule="evenodd" clip-rule="evenodd" d="M47.6905 61.6205H32.3734C31.1503 61.6205 29.5935 61.4808 28.565 60.4195C27.5642 59.3861 27.592 58.1014 27.6198 57.2356V54.7499C20.6146 50.0578 16 41.9024 16 34.1381C16 26.7927 19.2802 19.9221 24.979 15.3138C30.6777 10.7054 38.1555 8.97383 45.4666 10.5937C52.4163 12.1298 58.4208 16.794 61.5342 23.0781C67.5665 35.2832 61.7566 48.4937 52.4719 54.7778V56.8725C52.4996 57.6824 52.5275 59.1627 51.3877 60.3357C50.5259 61.1736 49.3028 61.6205 47.6905 61.6205ZM31.7618 57.4032C31.8212 57.4032 31.8907 57.4082 31.9703 57.4141L31.9705 57.4141C32.0773 57.4219 32.2023 57.4311 32.3456 57.4311H47.6905C47.9685 57.4311 48.1631 57.4032 48.2743 57.3752V57.0959V53.5768C48.2743 52.8507 48.6634 52.1525 49.275 51.7894C57.5034 46.79 62.9519 35.367 57.7536 24.8935C55.1961 19.7266 50.248 15.9003 44.5214 14.6435C38.4613 13.3029 32.2622 14.7273 27.5364 18.5536C22.8107 22.3799 20.1142 28.0495 20.1142 34.1381C20.1142 41.9024 25.4515 48.6054 30.7333 51.8173C31.3727 52.2083 31.734 52.8786 31.734 53.6048V57.3752C31.7618 57.3752 31.7618 57.3752 31.7618 57.4032ZM49.7191 70.0004C49.5245 70.0004 49.3299 69.9724 49.1353 69.9166C43.1308 68.185 36.8205 68.185 30.816 69.9166C29.704 70.2238 28.5643 69.5814 28.2307 68.4643C27.8971 67.3471 28.5643 66.202 29.6762 65.8668C36.4035 63.9397 43.5478 63.9397 50.275 65.8668C51.387 66.1741 52.0264 67.3471 51.7206 68.4643C51.4704 69.4139 50.6364 70.0004 49.7191 70.0004ZM38.9615 44.8647C39.2673 45.0602 39.6286 45.144 39.99 45.144C40.7128 45.144 41.4077 44.7809 41.7969 44.1106L44.7714 38.9158C45.4664 37.6869 45.522 36.4022 44.9104 35.3409C44.2988 34.3075 43.1591 33.693 41.7691 33.693H39.434L41.7969 29.5316C42.3529 28.554 42.0193 27.2693 41.0186 26.6828C40.0456 26.1242 38.7669 26.4594 38.1831 27.4648L35.2086 32.6596C34.5137 33.8885 34.4581 35.1733 35.0697 36.2346C35.6812 37.268 36.821 37.8824 38.2109 37.8824H40.546L38.1831 42.0159C37.6271 42.9935 37.9607 44.2782 38.9615 44.8647Z" fill="white"/>
</svg>
