<svg width="80" height="80" viewBox="0 0 80 80" fill="none" xmlns="http://www.w3.org/2000/svg">
<path d="M41.1811 15.4105C40.8386 15.1445 40.4168 15 39.9826 15C39.5484 15 39.1266 15.1445 38.7842 15.4105L11.0526 36.959L13.4514 39.9822L16.8421 37.3475V61.1538C16.8441 62.1732 17.2514 63.1504 17.9748 63.8712C18.6982 64.5921 19.6787 64.998 20.7018 65H59.2982C60.3213 64.998 61.3018 64.5921 62.0252 63.8712C62.7486 63.1504 63.1559 62.1732 63.1579 61.1538V37.3648L66.5486 39.9995L68.9474 36.9764L41.1811 15.4105ZM43.8596 61.1538H36.1404V45.7688H43.8596V61.1538ZM47.7193 61.1538V45.7688C47.7183 44.7491 47.3113 43.7714 46.5877 43.0503C45.8641 42.3292 44.883 41.9236 43.8596 41.9226H36.1404C35.117 41.9236 34.1359 42.3292 33.4123 43.0503C32.6887 43.7714 32.2817 44.7491 32.2807 45.7688V61.1538H20.7018V34.3494L40 19.3683L59.2982 34.3686V61.1538H47.7193Z" fill="white"/>
</svg>
