<svg width="80" height="80" viewBox="0 0 80 80" fill="none" xmlns="http://www.w3.org/2000/svg">
<path d="M10.5349 24.3498C10.1269 23.8403 9.94058 23.1929 10.0167 22.549C10.0928 21.9051 10.4251 21.3168 10.9411 20.9126C13.6613 18.9449 16.7518 17.5263 20.0337 16.7389C25.0643 15.5114 32.8759 15.2045 41.3748 20.7592C54.6232 29.4442 65.4969 21.2502 65.9343 20.8819C66.4611 20.4871 67.1232 20.308 67.7816 20.3824C68.44 20.4568 69.0434 20.7788 69.4651 21.2809C69.8731 21.7904 70.0594 22.4378 69.9833 23.0817C69.9072 23.7256 69.5749 24.3139 69.0589 24.7181C66.3387 26.6858 63.2482 28.1044 59.9663 28.8918C57.953 29.3842 55.8856 29.6315 53.8108 29.6283C49.4363 29.6283 44.187 28.4928 38.6252 24.8715C25.3768 16.1865 14.5031 24.3805 14.0657 24.7488C13.5389 25.1437 12.8768 25.3227 12.2184 25.2483C11.56 25.1739 10.9566 24.8519 10.5349 24.3498ZM65.9343 38.0678C65.4969 38.4361 54.6232 46.63 41.3748 37.945C32.8759 32.3903 25.0643 32.6972 20.0337 33.9248C16.7518 34.7121 13.6613 36.1307 10.9411 38.0985C10.4251 38.5027 10.0928 39.0909 10.0167 39.7348C9.94058 40.3788 10.1269 41.0261 10.5349 41.5357C10.9566 42.0377 11.56 42.3598 12.2184 42.4342C12.8768 42.5086 13.5389 42.3295 14.0657 41.9346C14.5031 41.5664 25.3768 33.3724 38.6252 42.0574C44.187 45.6787 49.4363 46.8142 53.8108 46.8142C55.8856 46.8174 57.953 46.57 59.9663 46.0776C63.2482 45.2903 66.3387 43.8717 69.0589 41.9039C69.5749 41.4997 69.9072 40.9115 69.9833 40.2676C70.0594 39.6237 69.8731 38.9763 69.4651 38.4668C69.0434 37.9647 68.44 37.6426 67.7816 37.5683C67.1232 37.4939 66.4611 37.6729 65.9343 38.0678ZM65.9343 55.2537C65.4969 55.6219 54.6232 63.8159 41.3748 55.1309C32.8759 49.5762 25.0643 49.8831 20.0337 51.1106C16.7518 51.898 13.6613 53.3166 10.9411 55.2844C10.4251 55.6885 10.0928 56.2768 10.0167 56.9207C9.94058 57.5646 10.1269 58.212 10.5349 58.7215C10.9566 59.2236 11.56 59.5456 12.2184 59.62C12.8768 59.6944 13.5389 59.5154 14.0657 59.1205C14.5031 58.7522 25.3768 50.5582 38.6252 59.2432C44.187 62.8645 49.4363 64 53.8108 64C59.2956 63.9962 64.6365 62.2763 69.0589 59.0898C69.5749 58.6856 69.9072 58.0974 69.9833 57.4534C70.0594 56.8095 69.8731 56.1622 69.4651 55.6526C69.0434 55.1505 68.44 54.8285 67.7816 54.7541C67.1232 54.6797 66.4611 54.8588 65.9343 55.2537Z" fill="white"/>
</svg>
