<svg width="80" height="80" viewBox="0 0 80 80" fill="none" xmlns="http://www.w3.org/2000/svg">
<path d="M40 4.79999C21.2384 20.816 11.84 34.6496 11.84 46.336C11.84 63.8656 25.216 75.2 40 75.2C54.784 75.2 68.16 63.8656 68.16 46.336C68.16 34.6496 58.7616 20.816 40 4.79999ZM40 68.16C28.208 68.16 18.88 59.1136 18.88 46.336C18.88 38.0992 25.744 27.1872 40 14.1632C54.256 27.1872 61.12 38.064 61.12 46.336C61.12 59.1136 51.792 68.16 40 68.16ZM25.3216 47.04C26.624 47.04 27.68 47.9552 27.9264 49.2224C29.3696 57.0368 35.952 59.712 40.7392 59.3248C42.2528 59.2544 43.52 60.4512 43.52 61.9648C43.52 63.3728 42.3936 64.5344 40.9856 64.6048C33.488 65.0624 24.7232 60.768 22.7168 50.1024C22.6556 49.725 22.6772 49.3388 22.7799 48.9706C22.8826 48.6023 23.0641 48.2607 23.3118 47.9695C23.5595 47.6783 23.8675 47.4444 24.2146 47.2839C24.5616 47.1234 24.9393 47.0402 25.3216 47.04V47.04Z" fill="white"/>
</svg>
