<svg width="80" height="80" viewBox="0 0 80 80" fill="none" xmlns="http://www.w3.org/2000/svg">
<path fill-rule="evenodd" clip-rule="evenodd" d="M24.875 18.4C24.0727 18.4 23.3033 18.6845 22.736 19.1908C22.1687 19.6972 21.85 20.3839 21.85 21.1V59.0534L38.2418 48.6029C39.2935 47.9324 40.7065 47.9324 41.7582 48.6029L58.15 59.0534V21.1C58.15 20.3839 57.8313 19.6972 57.264 19.1908C56.6967 18.6845 55.9273 18.4 55.125 18.4H24.875ZM18.458 15.3724C20.1599 13.8534 22.4682 13 24.875 13H55.125C57.5318 13 59.8401 13.8534 61.542 15.3724C63.2439 16.8915 64.2 18.9517 64.2 21.1V64.3C64.2 65.3114 63.5667 66.238 62.5592 66.7007C61.5516 67.1635 60.3388 67.0849 59.4168 66.4971L40 54.118L20.5832 66.4971C19.6612 67.0849 18.4484 67.1635 17.4408 66.7007C16.4333 66.238 15.8 65.3114 15.8 64.3V21.1C15.8 18.9517 16.7561 16.8915 18.458 15.3724Z" fill="white"/>
</svg>
