<svg width="80" height="80" viewBox="0 0 80 80" fill="none" xmlns="http://www.w3.org/2000/svg">
<path d="M40.0069 14.7065C40.4122 14.1253 40.9329 13.634 41.5366 13.2631C42.1402 12.8922 42.8138 12.6496 43.5154 12.5506C44.2169 12.4516 44.9313 12.4982 45.6141 12.6876C46.2968 12.8769 46.9332 13.2049 47.4835 13.6511L58.7242 22.7778C59.7286 23.5928 60.39 24.7555 60.5772 26.0354C60.7644 27.3152 60.4637 28.6187 59.7348 29.6872H55.5411L56.8817 27.7656C57.1312 27.4097 57.2366 26.9724 57.1767 26.5419C57.1167 26.1113 56.8959 25.7195 56.5586 25.4453L50.7698 20.7496L44.596 29.6872H40.4125L48.0919 18.5771L45.3144 16.3221C45.131 16.1733 44.919 16.0639 44.6915 16.0007C44.4639 15.9375 44.2258 15.9218 43.992 15.9547C43.7581 15.9876 43.5336 16.0684 43.3323 16.1919C43.131 16.3154 42.9574 16.4791 42.8222 16.6727L33.7437 29.6838H29.5499L40.0069 14.7065ZM52.0313 50.3124C51.5755 50.3124 51.1383 50.4934 50.816 50.8158C50.4937 51.1381 50.3126 51.5753 50.3126 52.0311C50.3126 52.487 50.4937 52.9241 50.816 53.2465C51.1383 53.5688 51.5755 53.7499 52.0313 53.7499H55.4689C55.9247 53.7499 56.3619 53.5688 56.6842 53.2465C57.0066 52.9241 57.1876 52.487 57.1876 52.0311C57.1876 51.5753 57.0066 51.1381 56.6842 50.8158C56.3619 50.4934 55.9247 50.3124 55.4689 50.3124H52.0313ZM21.0936 26.2497H28.5496L26.1433 29.6872H21.0936C20.6378 29.6872 20.2006 29.8683 19.8782 30.1906C19.5559 30.5129 19.3748 30.9501 19.3748 31.406C19.3748 31.8618 19.5559 32.299 19.8782 32.6213C20.2006 32.9436 20.6378 33.1247 21.0936 33.1247H57.1876C59.011 33.1247 60.7597 33.8491 62.049 35.1384C63.3384 36.4277 64.0627 38.1764 64.0627 39.9998V60.6249C64.0627 62.4483 63.3384 64.197 62.049 65.4863C60.7597 66.7757 59.011 67.5 57.1876 67.5H24.5311C22.2519 67.5 20.066 66.5946 18.4544 64.9829C16.8427 63.3713 15.9373 61.1854 15.9373 58.9062V31.406C15.9373 30.0384 16.4806 28.7269 17.4476 27.7599C18.4145 26.7929 19.7261 26.2497 21.0936 26.2497ZM19.3748 58.9062C19.3748 60.2737 19.9181 61.5852 20.8851 62.5522C21.8521 63.5192 23.1636 64.0625 24.5311 64.0625H57.1876C58.0993 64.0625 58.9737 63.7003 59.6183 63.0556C60.263 62.411 60.6252 61.5366 60.6252 60.6249V39.9998C60.6252 39.0881 60.263 38.2137 59.6183 37.5691C58.9737 36.9244 58.0993 36.5623 57.1876 36.5623H21.0936C20.492 36.5623 19.9111 36.4591 19.3748 36.2701V58.9062Z" fill="white"/>
</svg>
