<svg width="0" height="0" class="hidden">
  <symbol xmlns="http://www.w3.org/2000/svg" viewBox="0 0 40 40" id="email">
    <path d="M18.5369 21.6362L17.804 22.7459L18.5369 21.6362ZM21.4631 21.6362L22.196 22.7459L21.4631 21.6362ZM5.85714 9.2H34.1429V6.5H5.85714V9.2ZM35.4286 10.55V29.45H38V10.55H35.4286ZM34.1429 30.8H5.85714V33.5H34.1429V30.8ZM4.57143 29.45V10.55H2V29.45H4.57143ZM5.85714 30.8C5.51615 30.8 5.18912 30.6578 4.94801 30.4046C4.70689 30.1514 4.57143 29.808 4.57143 29.45H2C2 30.5241 2.40638 31.5543 3.12973 32.3138C3.85309 33.0733 4.83416 33.5 5.85714 33.5V30.8ZM35.4286 29.45C35.4286 29.808 35.2931 30.1514 35.052 30.4046C34.8109 30.6578 34.4838 30.8 34.1429 30.8V33.5C35.1658 33.5 36.1469 33.0733 36.8703 32.3138C37.5936 31.5543 38 30.5241 38 29.45H35.4286ZM34.1429 9.2C34.4838 9.2 34.8109 9.34223 35.052 9.59541C35.2931 9.84858 35.4286 10.192 35.4286 10.55H38C38 9.47587 37.5936 8.44574 36.8703 7.68622C36.1469 6.9267 35.1658 6.5 34.1429 6.5V9.2ZM5.85714 6.5C4.83416 6.5 3.85309 6.9267 3.12973 7.68622C2.40638 8.44574 2 9.47587 2 10.55H4.57143C4.57143 10.192 4.70689 9.84858 4.94801 9.59541C5.18912 9.34223 5.51615 9.2 5.85714 9.2V6.5ZM2.55286 11.6597L17.804 22.7459L19.2684 20.5265L4.01729 9.4403L2.55414 11.6597H2.55286ZM22.196 22.7459L37.4459 11.6597L35.9827 9.4403L20.7316 20.5265L22.196 22.7459ZM17.804 22.7459C18.4492 23.215 19.2152 23.4664 20 23.4664C20.7848 23.4664 21.5508 23.215 22.196 22.7459L20.7316 20.5265C20.5166 20.6827 20.2614 20.7663 20 20.7663C19.7386 20.7663 19.4834 20.6827 19.2684 20.5265L17.804 22.7459V22.7459Z"></path>
  </symbol>
  <symbol xmlns="http://www.w3.org/2000/svg" viewBox="0 0 40 40" id="file-attach">
    <path d="M26.9091 11.4065V28.7167C26.9091 32.1362 24.2664 35.1794 20.6736 35.5067C19.7139 35.5975 18.7447 35.4966 17.8286 35.2106C16.9126 34.9246 16.07 34.4597 15.3554 33.846C14.6408 33.2324 14.0701 32.4835 13.68 31.6479C13.29 30.8123 13.0893 29.9085 13.0909 28.9949V8.77236C13.0909 6.62903 14.7145 4.68204 16.96 4.46935C17.5622 4.4097 18.1709 4.47068 18.7466 4.64831C19.3223 4.82595 19.8521 5.11628 20.3017 5.50046C20.7512 5.88464 21.1105 6.35407 21.3561 6.87829C21.6017 7.4025 21.7281 7.96978 21.7273 8.5433V25.7226C21.7273 26.6225 20.95 27.3588 20 27.3588C19.05 27.3588 18.2727 26.6225 18.2727 25.7226V11.4065C18.2727 10.7357 17.6855 10.1794 16.9773 10.1794C16.2691 10.1794 15.6818 10.7357 15.6818 11.4065V25.4936C15.6818 27.6369 17.3055 29.5839 19.5509 29.7966C20.1531 29.8562 20.7618 29.7953 21.3375 29.6176C21.9132 29.44 22.443 29.1496 22.8926 28.7655C23.3421 28.3813 23.7014 27.9119 23.947 27.3876C24.1926 26.8634 24.319 26.2961 24.3182 25.7226V8.82144C24.3182 5.40194 21.6755 2.35874 18.0827 2.03152C17.1232 1.94197 16.1546 2.04374 15.2391 2.33026C14.3236 2.61678 13.4817 3.08172 12.7674 3.69512C12.0531 4.30853 11.4823 5.05682 11.0918 5.89183C10.7013 6.72683 10.4997 7.63004 10.5 8.5433V28.6186C10.5 33.3143 14.1273 37.5191 19.0673 37.9609C24.75 38.4517 29.5 34.2632 29.5 28.9949V11.4065C29.5 10.7357 28.9127 10.1794 28.2045 10.1794C27.4964 10.1794 26.9091 10.7357 26.9091 11.4065Z"></path>
  </symbol>
  <symbol xmlns="http://www.w3.org/2000/svg" viewBox="0 0 40 40" id="phone">
    <path d="M23.3796 5.31536C23.4249 5.14222 23.5043 4.97986 23.6132 4.8378C23.722 4.69573 23.8582 4.57682 24.0135 4.48802C24.1689 4.39923 24.3405 4.34234 24.5181 4.32069C24.6958 4.29903 24.876 4.31306 25.0481 4.36193C27.5872 5.04291 29.9024 6.37995 31.7612 8.23878C33.6201 10.0976 34.9571 12.4128 35.6381 14.9518C35.6869 15.124 35.701 15.3042 35.6793 15.4819C35.6577 15.6595 35.6008 15.8311 35.512 15.9865C35.4232 16.1419 35.3043 16.278 35.1622 16.3868C35.0201 16.4957 34.8578 16.5751 34.6846 16.6204C34.5684 16.654 34.4481 16.6712 34.3271 16.6714C34.0265 16.6697 33.7349 16.5686 33.4977 16.3838C33.2606 16.199 33.0913 15.941 33.0161 15.6499C32.4497 13.5767 31.3525 11.6869 29.8328 10.1672C28.3131 8.64749 26.4233 7.55029 24.3501 6.98387C24.1754 6.94043 24.0112 6.86238 23.8673 6.75433C23.7233 6.64628 23.6025 6.51043 23.512 6.35484C23.4215 6.19925 23.3632 6.02708 23.3404 5.84852C23.3177 5.66997 23.331 5.48867 23.3796 5.31536V5.31536ZM22.937 12.2448C24.0894 12.5602 25.1398 13.1705 25.9847 14.0153C26.8295 14.8602 27.4398 15.9106 27.7552 17.063C27.8277 17.3556 27.9963 17.6153 28.234 17.8005C28.4718 17.9857 28.7648 18.0858 29.0662 18.0846C29.1817 18.0857 29.2966 18.0684 29.4067 18.0335C29.5814 17.99 29.7456 17.912 29.8895 17.8039C30.0335 17.6959 30.1543 17.56 30.2448 17.4045C30.3353 17.2489 30.3936 17.0767 30.4164 16.8981C30.4391 16.7196 30.4258 16.5383 30.3772 16.365C29.9472 14.7467 29.0972 13.2708 27.9132 12.0868C26.7292 10.9028 25.2533 10.0528 23.635 9.62284C23.4574 9.55811 23.2682 9.53109 23.0795 9.54349C22.8908 9.55589 22.7068 9.60744 22.5391 9.69486C22.3714 9.78229 22.2238 9.90366 22.1056 10.0513C21.9874 10.1989 21.9012 10.3695 21.8526 10.5522C21.8039 10.7349 21.7939 10.9258 21.823 11.1126C21.8522 11.2994 21.9199 11.4781 22.0219 11.6374C22.1239 11.7966 22.258 11.9328 22.4155 12.0374C22.5731 12.142 22.7506 12.2126 22.937 12.2448V12.2448ZM36.9831 28.6745C36.6819 30.9736 35.5561 33.0852 33.8149 34.6166C32.0737 36.1479 29.8356 36.9949 27.5169 37C13.9985 37 3 26.0015 3 12.4831C3.00511 10.1644 3.85209 7.92631 5.38345 6.18513C6.91482 4.44394 9.02637 3.3181 11.3255 3.01691C11.9116 2.95192 12.5032 3.07532 13.0144 3.36921C13.5257 3.66309 13.93 4.11219 14.1688 4.65136L17.5909 12.6364C17.7684 13.0508 17.8396 13.5031 17.798 13.9521C17.7564 14.401 17.6033 14.8325 17.3526 15.2072L14.5263 19.5317C15.8061 22.129 17.9148 24.2257 20.5193 25.4907L24.7928 22.6474C25.1671 22.3951 25.5997 22.2423 26.0495 22.2036C26.4993 22.1648 26.9516 22.2414 27.3636 22.4261L35.3486 25.8312C35.8878 26.07 36.3369 26.4743 36.6308 26.9856C36.9247 27.4968 37.0481 28.0884 36.9831 28.6745V28.6745ZM34.276 28.334L26.291 24.9289L22.0346 27.7721C21.643 28.031 21.1911 28.1843 20.7227 28.2172C20.2544 28.25 19.7855 28.1612 19.3616 27.9594C16.1896 26.425 13.6239 23.8712 12.0746 20.7065C11.8704 20.284 11.7787 19.8159 11.8086 19.3476C11.8384 18.8793 11.9887 18.4266 12.2449 18.0335L15.0882 13.709L11.666 5.72398C10.023 5.93519 8.51324 6.73804 7.41949 7.98222C6.32575 9.22639 5.723 10.8266 5.7241 12.4831C5.7286 18.2616 8.02607 23.802 12.112 27.888C16.198 31.9739 21.7384 34.2714 27.5169 34.2759C29.1734 34.277 30.7736 33.6742 32.0178 32.5805C33.262 31.4868 34.0648 29.977 34.276 28.334V28.334Z"></path>
  </symbol>
  <symbol xmlns="http://www.w3.org/2000/svg" viewBox="0 0 30 30" id="search">
    <path fill-rule="evenodd" clip-rule="evenodd" d="M12.937 20.5887C17.3274 20.5887 20.8866 17.0888 20.8866 12.7715C20.8866 8.45417 17.3274 4.9543 12.937 4.9543C8.54656 4.9543 4.9874 8.45417 4.9874 12.7715C4.9874 17.0888 8.54656 20.5887 12.937 20.5887ZM12.937 22.543C18.4251 22.543 22.874 18.1681 22.874 12.7715C22.874 7.37484 18.4251 3 12.937 3C7.44895 3 3 7.37484 3 12.7715C3 18.1681 7.44895 22.543 12.937 22.543Z"></path>
    <path fill-rule="evenodd" clip-rule="evenodd" d="M18.9309 19.0653C19.319 18.6837 19.9482 18.6837 20.3362 19.0653L26.709 25.3319C27.097 25.7135 27.097 26.3322 26.709 26.7138C26.3209 27.0954 25.6917 27.0954 25.3036 26.7138L18.9309 20.4472C18.5428 20.0656 18.5428 19.4469 18.9309 19.0653Z"></path>
  </symbol>
  <symbol xmlns="http://www.w3.org/2000/svg" viewBox="0 0 40 40" id="address">
    <path fill-rule="evenodd" clip-rule="evenodd" d="M20 5.83335C17.0296 5.83335 14.1808 7.02741 12.0804 9.15284C9.98 11.2783 8.8 14.161 8.8 17.1668C8.8 21.5557 11.622 25.8145 14.7163 29.1196C16.2349 30.7416 17.7581 32.0695 18.9033 32.9923C19.3296 33.3357 19.7018 33.6218 20 33.8447C20.2982 33.6218 20.6704 33.3357 21.0967 32.9923C22.2419 32.0695 23.7651 30.7416 25.2837 29.1196C28.378 25.8145 31.2 21.5557 31.2 17.1668C31.2 14.161 30.02 11.2783 27.9196 9.15284C25.8192 7.02741 22.9704 5.83335 20 5.83335ZM20 35.5836C19.2234 36.7623 19.2227 36.7618 19.2227 36.7618L19.2187 36.7591L19.2093 36.7528L19.1772 36.7308C19.15 36.7121 19.1111 36.6852 19.0614 36.6503C18.9619 36.5806 18.819 36.4791 18.6389 36.3474C18.2788 36.0842 17.7689 35.7001 17.1592 35.2087C15.9419 34.2279 14.3151 32.8109 12.6837 31.0683C9.47797 27.6442 6 22.6946 6 17.1668C6 13.4095 7.475 9.80614 10.1005 7.14935C12.726 4.49257 16.287 3 20 3C23.713 3 27.274 4.49257 29.8995 7.14935C32.525 9.80614 34 13.4095 34 17.1668C34 22.6946 30.522 27.6442 27.3163 31.0683C25.6849 32.8109 24.0581 34.2279 22.8408 35.2087C22.2311 35.7001 21.7212 36.0842 21.3611 36.3474C21.181 36.4791 21.0381 36.5806 20.9386 36.6503C20.8889 36.6852 20.85 36.7121 20.8228 36.7308L20.7907 36.7528L20.7813 36.7591L20.7784 36.7611C20.7784 36.7611 20.7766 36.7623 20 35.5836ZM20 35.5836L20.7766 36.7623C20.3063 37.0796 19.6929 37.0791 19.2227 36.7618L20 35.5836Z"></path>
    <path fill-rule="evenodd" clip-rule="evenodd" d="M20 14.3334C18.4536 14.3334 17.2 15.602 17.2 17.1668C17.2 18.7316 18.4536 20.0001 20 20.0001C21.5464 20.0001 22.8 18.7316 22.8 17.1668C22.8 15.602 21.5464 14.3334 20 14.3334ZM14.4 17.1668C14.4 14.0371 16.9072 11.5001 20 11.5001C23.0928 11.5001 25.6 14.0371 25.6 17.1668C25.6 20.2964 23.0928 22.8335 20 22.8335C16.9072 22.8335 14.4 20.2964 14.4 17.1668Z"></path>
  </symbol>
  <symbol xmlns="http://www.w3.org/2000/svg" viewBox="0 0 30 30" id="arrow-1">
    <path d="M16.1406 24.1178L24.3906 15.8678C24.5156 15.7428 24.6044 15.6074 24.6569 15.4615C24.7085 15.3157 24.7344 15.1594 24.7344 14.9928C24.7344 14.8261 24.7085 14.6699 24.6569 14.524C24.6044 14.3782 24.5156 14.2428 24.3906 14.1178L16.1406 5.86778C15.9115 5.63861 15.6252 5.51861 15.2819 5.50778C14.9377 5.49778 14.6406 5.61778 14.3906 5.86778C14.1406 6.09695 14.0102 6.3832 13.9994 6.72653C13.9894 7.0707 14.1094 7.36778 14.3594 7.61778L20.4844 13.7428H6.51562C6.16146 13.7428 5.86438 13.8624 5.62438 14.1015C5.38521 14.3415 5.26562 14.6386 5.26562 14.9928C5.26562 15.3469 5.38521 15.6436 5.62438 15.8828C5.86438 16.1228 6.16146 16.2428 6.51562 16.2428H20.4844L14.3594 22.3678C14.1302 22.5969 14.0102 22.8886 13.9994 23.2428C13.9894 23.5969 14.1094 23.8886 14.3594 24.1178C14.5885 24.3678 14.8802 24.4928 15.2344 24.4928C15.5885 24.4928 15.8906 24.3678 16.1406 24.1178V24.1178Z"></path>
  </symbol>
  <symbol xmlns="http://www.w3.org/2000/svg" viewBox="0 0 30 30" id="arrow-2">
    <path fill-rule="evenodd" clip-rule="evenodd" d="M9.41107 13.9684C8.86298 14.5469 8.86298 15.4531 9.41107 16.0316L18.4111 25.5316C18.9808 26.133 19.9302 26.1587 20.5316 25.5889C21.133 25.0192 21.1587 24.0698 20.5889 23.4684L12.5663 15L20.5889 6.53162C21.1587 5.93022 21.133 4.98082 20.5316 4.41107C19.9302 3.84133 18.9808 3.86699 18.4111 4.46839L9.41107 13.9684Z"></path>
  </symbol>
</svg>