<?xml version="1.0" standalone="no"?>
<!DOCTYPE svg PUBLIC "-//W3C//DTD SVG 20010904//EN"
 "http://www.w3.org/TR/2001/REC-SVG-20010904/DTD/svg10.dtd">
<svg version="1.0" xmlns="http://www.w3.org/2000/svg"
 width="1000.000000pt" height="1000.000000pt" viewBox="0 0 1000.000000 1000.000000"
 preserveAspectRatio="xMidYMid meet">
<metadata>
Created by potrace 1.14, written by Peter Selinger 2001-2017
</metadata>
<g transform="translate(0.000000,1000.000000) scale(0.100000,-0.100000)"
fill="#000000" stroke="none">
<path d="M4617 9393 c-1 -1 -36 -4 -77 -7 -41 -4 -88 -8 -105 -11 -16 -2 -46
-7 -65 -9 -544 -74 -1150 -283 -1598 -553 -58 -35 -107 -63 -109 -63 -5 0
-275 -183 -299 -203 -10 -8 -65 -52 -122 -96 -126 -100 -230 -192 -342 -303
-134 -133 -194 -197 -189 -202 6 -6 45 -13 124 -21 78 -8 223 -25 255 -30 14
-2 52 -6 84 -10 33 -3 73 -8 90 -10 27 -4 125 -16 251 -31 22 -2 56 -6 75 -9
19 -2 58 -7 85 -10 28 -3 66 -8 85 -10 19 -3 57 -7 84 -10 26 -3 87 -10 135
-15 47 -6 104 -13 126 -16 22 -2 56 -6 75 -9 19 -3 58 -7 85 -10 28 -3 68 -8
90 -11 22 -2 58 -7 80 -10 22 -2 56 -6 75 -9 82 -11 118 -15 165 -19 28 -3 66
-7 85 -10 49 -7 124 -16 177 -21 24 -3 94 -11 156 -19 62 -8 137 -17 167 -21
30 -3 66 -8 80 -10 14 -2 54 -7 90 -10 36 -3 76 -8 90 -10 30 -5 83 -11 165
-20 33 -4 71 -8 85 -11 14 -2 48 -6 75 -9 28 -3 84 -10 125 -15 41 -5 95 -12
120 -14 42 -5 86 -10 170 -21 19 -2 60 -7 90 -10 30 -4 63 -9 72 -11 13 -4 25
13 52 71 37 81 78 139 134 192 l33 32 -32 58 c-17 32 -55 99 -84 148 -29 50
-63 108 -75 130 -12 22 -104 182 -203 355 -99 173 -189 330 -199 349 -11 19
-64 112 -119 208 -55 96 -112 195 -125 220 -81 145 -75 138 -133 138 -28 1
-53 0 -54 -2z"/>
<path d="M5281 9349 c10 -28 26 -64 34 -80 9 -16 14 -30 13 -32 -2 -2 7 -26
19 -53 13 -27 85 -200 161 -384 164 -396 155 -374 156 -380 1 -3 9 -21 18 -40
9 -19 32 -73 51 -120 74 -181 114 -276 132 -313 l17 -37 62 6 c89 9 96 9 156
1 187 -27 378 -166 451 -329 7 -16 17 -28 24 -28 6 0 76 16 156 36 79 19 153
37 164 40 11 2 70 15 130 30 61 14 118 28 128 30 10 2 27 6 37 9 10 3 27 7 37
9 10 2 88 21 173 41 85 20 162 39 170 40 8 2 83 20 165 40 83 19 230 54 327
77 151 36 175 44 168 57 -26 47 -340 346 -474 451 -10 8 -33 27 -50 41 -84 69
-367 269 -381 269 -3 0 -11 5 -18 11 -24 21 -186 113 -322 183 -417 214 -881
364 -1330 430 -163 25 -167 25 -342 41 l-52 4 20 -50z"/>
<path d="M8507 7533 c-1 -1 -30 -4 -64 -8 -34 -3 -70 -7 -80 -9 -10 -2 -43 -7
-73 -10 -30 -4 -71 -9 -90 -11 -19 -3 -57 -7 -85 -10 -48 -6 -263 -31 -335
-40 -19 -3 -60 -7 -90 -11 -30 -3 -66 -7 -80 -9 -59 -8 -108 -15 -155 -20 -27
-3 -66 -7 -85 -10 -19 -2 -57 -7 -85 -10 -27 -3 -63 -8 -80 -10 -58 -7 -121
-15 -180 -21 -33 -3 -73 -8 -90 -10 -16 -2 -52 -6 -80 -10 -27 -3 -60 -7 -73
-9 -13 -2 -55 -7 -93 -11 -38 -4 -72 -10 -74 -14 -3 -4 -7 -25 -10 -46 -10
-66 -35 -145 -66 -206 l-29 -57 51 -48 c29 -26 73 -68 99 -93 43 -41 302 -287
390 -370 20 -19 110 -105 200 -190 90 -85 180 -171 200 -190 20 -19 110 -105
200 -190 90 -85 180 -171 200 -190 20 -19 106 -100 190 -180 85 -80 170 -161
190 -180 20 -19 81 -78 137 -130 219 -207 419 -397 453 -430 20 -19 108 -102
195 -185 87 -82 192 -183 234 -222 l76 -73 11 73 c29 183 39 340 39 617 0 216
-8 396 -19 455 -2 11 -7 51 -10 89 -4 38 -9 72 -11 75 -2 3 -6 29 -9 56 -3 28
-8 60 -10 71 -2 12 -7 38 -10 57 -29 183 -174 695 -207 732 -5 5 -9 17 -9 27
0 10 -4 26 -10 36 -5 9 -30 67 -56 127 -102 242 -229 476 -389 719 -55 83 -58
86 -92 83 -19 -1 -35 -3 -36 -4z"/>
<path d="M1321 7451 c-32 -46 -153 -244 -193 -316 -120 -218 -265 -552 -337
-777 -34 -106 -116 -421 -125 -480 -3 -21 -10 -57 -15 -80 -6 -23 -8 -45 -5
-49 2 -4 0 -10 -6 -14 -6 -4 -8 -9 -6 -13 2 -4 0 -32 -5 -62 -5 -30 -12 -80
-15 -110 -3 -30 -7 -66 -10 -80 -18 -104 -26 -623 -12 -800 12 -141 42 -378
50 -386 2 -2 112 60 243 138 132 78 276 162 320 188 72 42 191 112 540 318 61
35 124 72 140 82 17 9 82 48 145 85 63 37 129 76 147 86 17 10 49 28 70 41 57
34 39 23 578 341 275 161 588 346 695 409 107 63 222 130 255 150 33 19 188
111 345 203 358 211 663 390 715 420 41 24 590 349 612 363 10 6 10 16 3 42
-6 19 -13 51 -16 70 -3 19 -8 37 -10 39 -6 6 -21 7 -204 15 -80 4 -176 9 -215
11 -38 2 -122 7 -185 10 -129 6 -251 13 -385 20 -49 3 -135 7 -190 10 -55 3
-138 8 -185 10 -47 3 -130 7 -185 10 -218 10 -323 16 -385 20 -36 2 -123 7
-195 10 -71 4 -159 8 -195 10 -36 2 -121 6 -190 10 -69 3 -152 7 -185 10 -33
2 -114 7 -180 10 -66 3 -158 8 -205 10 -47 3 -132 7 -190 10 -188 9 -304 15
-380 20 -41 2 -133 7 -205 11 -71 3 -152 7 -178 9 -42 2 -50 -1 -66 -24z"/>
<path d="M5525 6890 c-22 -15 -177 -119 -345 -229 -168 -110 -312 -205 -320
-211 -8 -5 -89 -59 -180 -118 -224 -148 -691 -456 -875 -578 -82 -54 -157
-103 -166 -109 -9 -5 -29 -19 -45 -30 -27 -18 -276 -182 -809 -533 -305 -201
-621 -410 -875 -577 -118 -78 -350 -231 -515 -340 -165 -108 -375 -247 -466
-307 l-167 -110 25 -82 c25 -80 56 -172 73 -211 4 -11 27 -67 51 -125 146
-363 376 -754 624 -1065 161 -200 378 -429 537 -566 40 -34 75 -65 78 -68 3
-4 25 -22 50 -41 25 -19 50 -39 56 -45 6 -5 32 -26 58 -45 26 -19 59 -45 74
-56 42 -33 292 -198 342 -226 25 -14 59 -34 77 -44 17 -10 34 -16 36 -14 2 3
124 246 270 540 145 294 460 929 700 1410 1665 3349 1847 3717 1847 3729 0 13
-71 81 -85 80 -5 0 -28 -13 -50 -29z"/>
<path d="M6269 6794 l-66 -34 27 -162 c15 -90 30 -181 34 -203 3 -22 8 -51 10
-65 3 -14 7 -43 10 -65 4 -22 19 -121 36 -220 16 -99 31 -198 35 -219 3 -21 7
-48 10 -60 2 -12 7 -39 10 -61 5 -39 10 -68 20 -130 3 -16 12 -73 20 -125 9
-52 18 -106 20 -120 2 -14 7 -43 10 -65 3 -22 8 -51 10 -65 2 -14 7 -43 10
-65 3 -23 8 -52 10 -65 6 -28 33 -195 41 -250 3 -19 7 -42 9 -50 2 -8 7 -37
11 -65 3 -27 8 -59 10 -70 2 -10 6 -37 9 -60 3 -22 15 -92 25 -155 10 -63 21
-133 25 -155 3 -22 7 -47 10 -55 2 -8 6 -35 9 -60 3 -25 8 -56 11 -70 2 -13 7
-42 10 -65 3 -22 11 -67 16 -100 6 -33 12 -69 14 -80 1 -11 10 -63 18 -115 29
-178 29 -176 41 -260 4 -25 9 -56 11 -70 3 -14 7 -38 9 -55 38 -238 101 -624
122 -750 8 -49 17 -110 20 -135 3 -25 7 -52 9 -60 3 -8 7 -33 10 -55 4 -22 17
-105 30 -185 27 -165 34 -211 41 -260 2 -19 7 -46 9 -60 3 -14 14 -81 25 -150
11 -69 22 -136 24 -150 3 -14 7 -41 10 -60 3 -19 8 -46 10 -60 2 -14 8 -47 12
-75 4 -27 8 -52 9 -55 1 -3 5 -33 9 -67 4 -35 11 -63 15 -63 11 0 210 122 316
193 329 221 648 504 890 791 28 32 57 67 66 76 53 56 271 364 358 505 84 136
205 371 277 537 19 46 41 97 49 113 16 37 97 272 118 342 18 59 26 45 -91 168
-37 39 -112 119 -167 179 -55 60 -113 123 -130 141 -16 17 -79 85 -140 150
-60 66 -135 146 -166 179 -32 34 -71 77 -89 96 -18 19 -78 85 -135 145 -56 61
-114 124 -129 140 -15 17 -72 77 -126 135 -53 58 -108 117 -121 131 -23 26
-200 215 -269 289 -19 20 -80 86 -135 146 -55 59 -113 122 -129 139 -15 16
-69 75 -120 129 -50 55 -109 118 -131 141 -22 24 -83 89 -135 146 -52 56 -108
117 -125 134 -16 18 -75 81 -130 140 -297 321 -368 395 -374 393 -3 0 -36 -16
-72 -34z"/>
<path d="M5730 6442 c-208 -477 -365 -834 -383 -872 -9 -19 -100 -226 -202
-460 -102 -234 -192 -438 -200 -455 -7 -16 -122 -277 -255 -580 -133 -302
-255 -578 -271 -613 -16 -35 -29 -65 -29 -68 0 -2 -13 -32 -29 -66 -16 -35
-93 -209 -171 -388 -79 -179 -151 -343 -161 -365 -10 -22 -86 -195 -169 -385
-84 -190 -160 -363 -170 -385 -10 -22 -57 -130 -105 -240 -48 -110 -130 -296
-181 -413 -52 -117 -94 -216 -94 -221 0 -5 8 -11 18 -14 9 -3 71 -25 137 -50
185 -68 485 -153 640 -181 17 -3 40 -8 51 -10 12 -2 37 -7 55 -10 19 -3 43 -7
54 -10 11 -2 43 -7 70 -10 28 -4 64 -9 80 -11 32 -6 88 -11 200 -20 39 -3 95
-8 125 -10 68 -6 383 -6 465 0 131 8 236 16 257 20 13 2 48 6 78 10 80 9 111
13 150 20 19 4 46 9 60 11 119 20 308 64 430 100 47 14 92 27 100 29 8 2 74
24 145 50 72 25 145 51 163 58 l34 11 -7 60 c-8 76 -14 131 -20 176 -3 19 -7
59 -10 88 -7 70 -15 149 -20 192 -3 19 -7 62 -10 95 -3 33 -7 71 -10 85 -2 14
-7 54 -10 90 -6 62 -8 79 -19 175 -3 22 -7 69 -11 105 -3 36 -8 76 -10 90 -3
14 -7 51 -10 83 -7 78 -16 163 -30 282 -3 22 -7 65 -10 95 -3 30 -8 71 -10 90
-7 51 -13 106 -20 180 -3 36 -8 81 -10 100 -8 67 -14 115 -20 165 -3 28 -8 73
-10 100 -4 46 -9 89 -20 185 -2 19 -7 60 -10 90 -6 64 -15 141 -20 190 -2 19
-7 58 -10 85 -3 28 -7 68 -10 90 -2 22 -8 81 -14 130 -6 50 -13 117 -16 150
-3 33 -8 78 -11 100 -9 77 -13 110 -19 165 -3 30 -7 71 -9 90 -3 19 -7 62 -11
95 -10 96 -16 147 -21 190 -2 22 -7 65 -9 95 -3 30 -7 71 -10 90 -3 19 -7 62
-11 95 -3 33 -7 71 -9 85 -2 14 -6 50 -10 80 -11 105 -16 155 -20 190 -3 19
-7 62 -10 95 -3 33 -7 71 -9 85 -3 14 -7 56 -11 93 -3 37 -8 76 -10 85 -1 9
-6 51 -9 92 -4 41 -9 89 -11 105 -2 17 -7 57 -10 90 -9 94 -15 148 -20 180 -2
17 -6 57 -10 90 -3 33 -8 76 -10 95 -3 19 -7 62 -10 95 -3 33 -8 74 -10 90 -8
65 -18 151 -18 162 0 14 -13 19 -77 27 l-45 6 -135 -308z"/>
</g>
</svg>
