<svg width="40" height="40" viewBox="0 0 40 40" xmlns="http://www.w3.org/2000/svg"><path fill-rule="evenodd" clip-rule="evenodd" d="M20 5.83335C17.0296 5.83335 14.1808 7.02741 12.0804 9.15284C9.98 11.2783 8.8 14.161 8.8 17.1668C8.8 21.5557 11.622 25.8145 14.7163 29.1196C16.2349 30.7416 17.7581 32.0695 18.9033 32.9923C19.3296 33.3357 19.7018 33.6218 20 33.8447C20.2982 33.6218 20.6704 33.3357 21.0967 32.9923C22.2419 32.0695 23.7651 30.7416 25.2837 29.1196C28.378 25.8145 31.2 21.5557 31.2 17.1668C31.2 14.161 30.02 11.2783 27.9196 9.15284C25.8192 7.02741 22.9704 5.83335 20 5.83335ZM20 35.5836C19.2234 36.7623 19.2227 36.7618 19.2227 36.7618L19.2187 36.7591L19.2093 36.7528L19.1772 36.7308C19.15 36.7121 19.1111 36.6852 19.0614 36.6503C18.9619 36.5806 18.819 36.4791 18.6389 36.3474C18.2788 36.0842 17.7689 35.7001 17.1592 35.2087C15.9419 34.2279 14.3151 32.8109 12.6837 31.0683C9.47797 27.6442 6 22.6946 6 17.1668C6 13.4095 7.475 9.80614 10.1005 7.14935C12.726 4.49257 16.287 3 20 3C23.713 3 27.274 4.49257 29.8995 7.14935C32.525 9.80614 34 13.4095 34 17.1668C34 22.6946 30.522 27.6442 27.3163 31.0683C25.6849 32.8109 24.0581 34.2279 22.8408 35.2087C22.2311 35.7001 21.7212 36.0842 21.3611 36.3474C21.181 36.4791 21.0381 36.5806 20.9386 36.6503C20.8889 36.6852 20.85 36.7121 20.8228 36.7308L20.7907 36.7528L20.7813 36.7591L20.7784 36.7611C20.7784 36.7611 20.7766 36.7623 20 35.5836ZM20 35.5836L20.7766 36.7623C20.3063 37.0796 19.6929 37.0791 19.2227 36.7618L20 35.5836Z"/><path fill-rule="evenodd" clip-rule="evenodd" d="M20 14.3334C18.4536 14.3334 17.2 15.602 17.2 17.1668C17.2 18.7316 18.4536 20.0001 20 20.0001C21.5464 20.0001 22.8 18.7316 22.8 17.1668C22.8 15.602 21.5464 14.3334 20 14.3334ZM14.4 17.1668C14.4 14.0371 16.9072 11.5001 20 11.5001C23.0928 11.5001 25.6 14.0371 25.6 17.1668C25.6 20.2964 23.0928 22.8335 20 22.8335C16.9072 22.8335 14.4 20.2964 14.4 17.1668Z"/></svg>