<svg width="40" height="40" viewBox="0 0 40 40" xmlns="http://www.w3.org/2000/svg"><path d="M18.5369 21.6362L17.804 22.7459L18.5369 21.6362ZM21.4631 21.6362L22.196 22.7459L21.4631 21.6362ZM5.85714 9.2H34.1429V6.5H5.85714V9.2ZM35.4286 10.55V29.45H38V10.55H35.4286ZM34.1429 30.8H5.85714V33.5H34.1429V30.8ZM4.57143 29.45V10.55H2V29.45H4.57143ZM5.85714 30.8C5.51615 30.8 5.18912 30.6578 4.94801 30.4046C4.70689 30.1514 4.57143 29.808 4.57143 29.45H2C2 30.5241 2.40638 31.5543 3.12973 32.3138C3.85309 33.0733 4.83416 33.5 5.85714 33.5V30.8ZM35.4286 29.45C35.4286 29.808 35.2931 30.1514 35.052 30.4046C34.8109 30.6578 34.4838 30.8 34.1429 30.8V33.5C35.1658 33.5 36.1469 33.0733 36.8703 32.3138C37.5936 31.5543 38 30.5241 38 29.45H35.4286ZM34.1429 9.2C34.4838 9.2 34.8109 9.34223 35.052 9.59541C35.2931 9.84858 35.4286 10.192 35.4286 10.55H38C38 9.47587 37.5936 8.44574 36.8703 7.68622C36.1469 6.9267 35.1658 6.5 34.1429 6.5V9.2ZM5.85714 6.5C4.83416 6.5 3.85309 6.9267 3.12973 7.68622C2.40638 8.44574 2 9.47587 2 10.55H4.57143C4.57143 10.192 4.70689 9.84858 4.94801 9.59541C5.18912 9.34223 5.51615 9.2 5.85714 9.2V6.5ZM2.55286 11.6597L17.804 22.7459L19.2684 20.5265L4.01729 9.4403L2.55414 11.6597H2.55286ZM22.196 22.7459L37.4459 11.6597L35.9827 9.4403L20.7316 20.5265L22.196 22.7459ZM17.804 22.7459C18.4492 23.215 19.2152 23.4664 20 23.4664C20.7848 23.4664 21.5508 23.215 22.196 22.7459L20.7316 20.5265C20.5166 20.6827 20.2614 20.7663 20 20.7663C19.7386 20.7663 19.4834 20.6827 19.2684 20.5265L17.804 22.7459V22.7459Z"/></svg>