<svg width="40" height="40" viewBox="0 0 40 40" xmlns="http://www.w3.org/2000/svg"><path d="M26.9091 11.4065V28.7167C26.9091 32.1362 24.2664 35.1794 20.6736 35.5067C19.7139 35.5975 18.7447 35.4966 17.8286 35.2106C16.9126 34.9246 16.07 34.4597 15.3554 33.846C14.6408 33.2324 14.0701 32.4835 13.68 31.6479C13.29 30.8123 13.0893 29.9085 13.0909 28.9949V8.77236C13.0909 6.62903 14.7145 4.68204 16.96 4.46935C17.5622 4.4097 18.1709 4.47068 18.7466 4.64831C19.3223 4.82595 19.8521 5.11628 20.3017 5.50046C20.7512 5.88464 21.1105 6.35407 21.3561 6.87829C21.6017 7.4025 21.7281 7.96978 21.7273 8.5433V25.7226C21.7273 26.6225 20.95 27.3588 20 27.3588C19.05 27.3588 18.2727 26.6225 18.2727 25.7226V11.4065C18.2727 10.7357 17.6855 10.1794 16.9773 10.1794C16.2691 10.1794 15.6818 10.7357 15.6818 11.4065V25.4936C15.6818 27.6369 17.3055 29.5839 19.5509 29.7966C20.1531 29.8562 20.7618 29.7953 21.3375 29.6176C21.9132 29.44 22.443 29.1496 22.8926 28.7655C23.3421 28.3813 23.7014 27.9119 23.947 27.3876C24.1926 26.8634 24.319 26.2961 24.3182 25.7226V8.82144C24.3182 5.40194 21.6755 2.35874 18.0827 2.03152C17.1232 1.94197 16.1546 2.04374 15.2391 2.33026C14.3236 2.61678 13.4817 3.08172 12.7674 3.69512C12.0531 4.30853 11.4823 5.05682 11.0918 5.89183C10.7013 6.72683 10.4997 7.63004 10.5 8.5433V28.6186C10.5 33.3143 14.1273 37.5191 19.0673 37.9609C24.75 38.4517 29.5 34.2632 29.5 28.9949V11.4065C29.5 10.7357 28.9127 10.1794 28.2045 10.1794C27.4964 10.1794 26.9091 10.7357 26.9091 11.4065Z"/></svg>