<svg width="30" height="30" viewBox="0 0 30 30" xmlns="http://www.w3.org/2000/svg"><path fill-rule="evenodd" clip-rule="evenodd" d="M12.937 20.5887C17.3274 20.5887 20.8866 17.0888 20.8866 12.7715C20.8866 8.45417 17.3274 4.9543 12.937 4.9543C8.54656 4.9543 4.9874 8.45417 4.9874 12.7715C4.9874 17.0888 8.54656 20.5887 12.937 20.5887ZM12.937 22.543C18.4251 22.543 22.874 18.1681 22.874 12.7715C22.874 7.37484 18.4251 3 12.937 3C7.44895 3 3 7.37484 3 12.7715C3 18.1681 7.44895 22.543 12.937 22.543Z"/><path fill-rule="evenodd" clip-rule="evenodd" d="M18.9309 19.0653C19.319 18.6837 19.9482 18.6837 20.3362 19.0653L26.709 25.3319C27.097 25.7135 27.097 26.3322 26.709 26.7138C26.3209 27.0954 25.6917 27.0954 25.3036 26.7138L18.9309 20.4472C18.5428 20.0656 18.5428 19.4469 18.9309 19.0653Z"/></svg>