<svg width="30" height="30" viewBox="0 0 30 30" xmlns="http://www.w3.org/2000/svg"><path d="M16.1406 24.1178L24.3906 15.8678C24.5156 15.7428 24.6044 15.6074 24.6569 15.4615C24.7085 15.3157 24.7344 15.1594 24.7344 14.9928C24.7344 14.8261 24.7085 14.6699 24.6569 14.524C24.6044 14.3782 24.5156 14.2428 24.3906 14.1178L16.1406 5.86778C15.9115 5.63861 15.6252 5.51861 15.2819 5.50778C14.9377 5.49778 14.6406 5.61778 14.3906 5.86778C14.1406 6.09695 14.0102 6.3832 13.9994 6.72653C13.9894 7.0707 14.1094 7.36778 14.3594 7.61778L20.4844 13.7428H6.51562C6.16146 13.7428 5.86438 13.8624 5.62438 14.1015C5.38521 14.3415 5.26562 14.6386 5.26562 14.9928C5.26562 15.3469 5.38521 15.6436 5.62438 15.8828C5.86438 16.1228 6.16146 16.2428 6.51562 16.2428H20.4844L14.3594 22.3678C14.1302 22.5969 14.0102 22.8886 13.9994 23.2428C13.9894 23.5969 14.1094 23.8886 14.3594 24.1178C14.5885 24.3678 14.8802 24.4928 15.2344 24.4928C15.5885 24.4928 15.8906 24.3678 16.1406 24.1178V24.1178Z"/></svg>