<svg width="40" height="40" viewBox="0 0 40 40" xmlns="http://www.w3.org/2000/svg"><path d="M23.3796 5.31536C23.4249 5.14222 23.5043 4.97986 23.6132 4.8378C23.722 4.69573 23.8582 4.57682 24.0135 4.48802C24.1689 4.39923 24.3405 4.34234 24.5181 4.32069C24.6958 4.29903 24.876 4.31306 25.0481 4.36193C27.5872 5.04291 29.9024 6.37995 31.7612 8.23878C33.6201 10.0976 34.9571 12.4128 35.6381 14.9518C35.6869 15.124 35.701 15.3042 35.6793 15.4819C35.6577 15.6595 35.6008 15.8311 35.512 15.9865C35.4232 16.1419 35.3043 16.278 35.1622 16.3868C35.0201 16.4957 34.8578 16.5751 34.6846 16.6204C34.5684 16.654 34.4481 16.6712 34.3271 16.6714C34.0265 16.6697 33.7349 16.5686 33.4977 16.3838C33.2606 16.199 33.0913 15.941 33.0161 15.6499C32.4497 13.5767 31.3525 11.6869 29.8328 10.1672C28.3131 8.64749 26.4233 7.55029 24.3501 6.98387C24.1754 6.94043 24.0112 6.86238 23.8673 6.75433C23.7233 6.64628 23.6025 6.51043 23.512 6.35484C23.4215 6.19925 23.3632 6.02708 23.3404 5.84852C23.3177 5.66997 23.331 5.48867 23.3796 5.31536V5.31536ZM22.937 12.2448C24.0894 12.5602 25.1398 13.1705 25.9847 14.0153C26.8295 14.8602 27.4398 15.9106 27.7552 17.063C27.8277 17.3556 27.9963 17.6153 28.234 17.8005C28.4718 17.9857 28.7648 18.0858 29.0662 18.0846C29.1817 18.0857 29.2966 18.0684 29.4067 18.0335C29.5814 17.99 29.7456 17.912 29.8895 17.8039C30.0335 17.6959 30.1543 17.56 30.2448 17.4045C30.3353 17.2489 30.3936 17.0767 30.4164 16.8981C30.4391 16.7196 30.4258 16.5383 30.3772 16.365C29.9472 14.7467 29.0972 13.2708 27.9132 12.0868C26.7292 10.9028 25.2533 10.0528 23.635 9.62284C23.4574 9.55811 23.2682 9.53109 23.0795 9.54349C22.8908 9.55589 22.7068 9.60744 22.5391 9.69486C22.3714 9.78229 22.2238 9.90366 22.1056 10.0513C21.9874 10.1989 21.9012 10.3695 21.8526 10.5522C21.8039 10.7349 21.7939 10.9258 21.823 11.1126C21.8522 11.2994 21.9199 11.4781 22.0219 11.6374C22.1239 11.7966 22.258 11.9328 22.4155 12.0374C22.5731 12.142 22.7506 12.2126 22.937 12.2448V12.2448ZM36.9831 28.6745C36.6819 30.9736 35.5561 33.0852 33.8149 34.6166C32.0737 36.1479 29.8356 36.9949 27.5169 37C13.9985 37 3 26.0015 3 12.4831C3.00511 10.1644 3.85209 7.92631 5.38345 6.18513C6.91482 4.44394 9.02637 3.3181 11.3255 3.01691C11.9116 2.95192 12.5032 3.07532 13.0144 3.36921C13.5257 3.66309 13.93 4.11219 14.1688 4.65136L17.5909 12.6364C17.7684 13.0508 17.8396 13.5031 17.798 13.9521C17.7564 14.401 17.6033 14.8325 17.3526 15.2072L14.5263 19.5317C15.8061 22.129 17.9148 24.2257 20.5193 25.4907L24.7928 22.6474C25.1671 22.3951 25.5997 22.2423 26.0495 22.2036C26.4993 22.1648 26.9516 22.2414 27.3636 22.4261L35.3486 25.8312C35.8878 26.07 36.3369 26.4743 36.6308 26.9856C36.9247 27.4968 37.0481 28.0884 36.9831 28.6745V28.6745ZM34.276 28.334L26.291 24.9289L22.0346 27.7721C21.643 28.031 21.1911 28.1843 20.7227 28.2172C20.2544 28.25 19.7855 28.1612 19.3616 27.9594C16.1896 26.425 13.6239 23.8712 12.0746 20.7065C11.8704 20.284 11.7787 19.8159 11.8086 19.3476C11.8384 18.8793 11.9887 18.4266 12.2449 18.0335L15.0882 13.709L11.666 5.72398C10.023 5.93519 8.51324 6.73804 7.41949 7.98222C6.32575 9.22639 5.723 10.8266 5.7241 12.4831C5.7286 18.2616 8.02607 23.802 12.112 27.888C16.198 31.9739 21.7384 34.2714 27.5169 34.2759C29.1734 34.277 30.7736 33.6742 32.0178 32.5805C33.262 31.4868 34.0648 29.977 34.276 28.334V28.334Z"/></svg>