<svg width="228" height="96" viewBox="0 0 228 96" fill="none" xmlns="http://www.w3.org/2000/svg">
<path fill-rule="evenodd" clip-rule="evenodd" d="M94.7054 65.3755C94.435 66.5373 93.8609 67.4412 92.9831 68.0873C92.1052 68.7304 91.0451 69.0549 89.8027 69.0549C88.9431 69.0549 88.1928 68.9184 87.5549 68.6485C86.917 68.3785 86.3824 68.0024 85.9541 67.5261C85.5228 67.0499 85.2038 66.4888 84.9973 65.8427C84.7907 65.1966 84.6844 64.5019 84.6844 63.7527V57.3039C84.6844 56.6518 84.7877 56.0148 84.9973 55.3929C85.2038 54.7711 85.5197 54.2221 85.942 53.7458C86.3642 53.2696 86.8927 52.8874 87.5306 52.5993C88.1685 52.3111 88.9249 52.1685 89.8027 52.1685C91.1423 52.1685 92.2297 52.5204 93.0681 53.2181C93.9034 53.9187 94.4593 54.7954 94.7297 55.8449L92.1234 56.7033C92.0748 56.4667 91.9958 56.2332 91.8835 56.0117C91.7711 55.7873 91.6192 55.5871 91.4309 55.402C91.2395 55.22 91.0086 55.0714 90.7383 54.9622C90.468 54.85 90.1551 54.7954 89.8058 54.7954C89.3926 54.7954 89.0373 54.8682 88.7426 55.0107C88.448 55.1533 88.205 55.3414 88.0136 55.5719C87.8222 55.8024 87.6795 56.0603 87.5823 56.3484C87.4851 56.6366 87.4395 56.9217 87.4395 57.2099V63.8255C87.4395 64.1743 87.4881 64.511 87.5823 64.8295C87.6764 65.148 87.8253 65.4271 88.0257 65.6637C88.2262 65.9033 88.4723 66.0914 88.7669 66.2248C89.0616 66.3613 89.4078 66.4281 89.8058 66.4281C90.395 66.4281 90.8962 66.2612 91.3124 65.9246C91.7255 65.5909 91.9898 65.1298 92.1022 64.5414L94.7054 65.3755Z" fill="white"/>
<path fill-rule="evenodd" clip-rule="evenodd" d="M96.8347 68.9093V52.2899H106.087V54.8196H99.5594V59.2634H105.179V61.7477H99.5594V66.331H106.087V68.9093H96.8347Z" fill="white"/>
<path fill-rule="evenodd" clip-rule="evenodd" d="M115.534 63.8346C115.534 63.1309 115.358 62.5637 115.008 62.1329C114.659 61.6992 114.076 61.4838 113.262 61.4838H110.871V66.331H113.286C113.714 66.331 114.076 66.2673 114.361 66.1399C114.65 66.0125 114.878 65.8305 115.054 65.6C115.23 65.3695 115.355 65.0995 115.425 64.7962C115.498 64.4928 115.534 64.1713 115.534 63.8346ZM115.294 56.9217C115.294 56.2514 115.115 55.7266 114.756 55.3444C114.398 54.9622 113.821 54.7711 113.022 54.7711H110.868V59.1178H113.046C113.827 59.1178 114.398 58.9146 114.756 58.5081C115.115 58.1047 115.294 57.5739 115.294 56.9217ZM118.21 63.9893C118.21 65.5818 117.785 66.7981 116.931 67.6444C116.078 68.4877 114.936 68.9093 113.499 68.9093H108.141V52.2899H113.235C114.814 52.2899 115.996 52.6963 116.785 53.5093C117.575 54.3222 117.97 55.4263 117.97 56.8277C117.97 57.5284 117.821 58.1714 117.527 58.7599C117.232 59.3484 116.7 59.8185 115.938 60.1704V60.2887C116.336 60.4161 116.679 60.6041 116.965 60.8498C117.253 61.0955 117.487 61.3867 117.669 61.7204C117.852 62.0541 117.988 62.4181 118.076 62.8063C118.168 63.2006 118.21 63.595 118.21 63.9893Z" fill="white"/>
<path fill-rule="evenodd" clip-rule="evenodd" d="M120.674 68.9093V52.2899H129.929V54.8196H123.401V59.2634H129.021V61.7477H123.401V66.331H129.929V68.9093H120.674Z" fill="white"/>
<path fill-rule="evenodd" clip-rule="evenodd" d="M139.397 57.3646C139.397 56.5425 139.197 55.9116 138.799 55.4748C138.401 55.038 137.793 54.8196 136.982 54.8196H134.71V59.955H137.007C137.821 59.955 138.422 59.7215 138.811 59.2543C139.203 58.7872 139.397 58.1563 139.397 57.3646ZM142.101 57.4252C142.101 58.1411 141.997 58.8115 141.791 59.4303C141.584 60.0521 141.277 60.592 140.87 61.0531C140.463 61.5141 139.95 61.8751 139.327 62.139C138.705 62.4029 137.982 62.5333 137.152 62.5333H134.713V68.9093H131.988V52.2899H137.01C137.79 52.2899 138.492 52.393 139.115 52.6023C139.737 52.8086 140.272 53.124 140.715 53.5457C141.162 53.9673 141.505 54.5011 141.742 55.1472C141.979 55.7873 142.101 56.5486 142.101 57.4252Z" fill="white"/>
<path fill-rule="evenodd" clip-rule="evenodd" d="M150.973 57.2614C150.973 57.0552 150.937 56.8125 150.867 56.5304C150.794 56.2514 150.673 55.9844 150.496 55.7296C150.32 55.4748 150.086 55.2564 149.792 55.0714C149.497 54.8894 149.117 54.7984 148.656 54.7984C148.194 54.7984 147.805 54.8833 147.495 55.0502C147.185 55.217 146.936 55.4263 146.754 55.672C146.572 55.9177 146.438 56.1877 146.359 56.4728C146.28 56.7609 146.241 57.0309 146.241 57.2857L146.265 63.6496C146.265 64.4473 146.447 65.1177 146.815 65.6607C147.182 66.2036 147.805 66.4736 148.68 66.4736C149.303 66.4736 149.84 66.2613 150.293 65.8396C150.749 65.418 150.973 64.8386 150.973 64.1046V57.2614ZM153.747 63.871C153.747 64.6688 153.622 65.3846 153.376 66.0216C153.127 66.6586 152.778 67.2046 152.322 67.6566C151.866 68.1116 151.329 68.4574 150.709 68.694C150.086 68.9336 149.403 69.0519 148.653 69.0519C147.744 69.0519 146.964 68.9063 146.308 68.6121C145.655 68.3178 145.126 67.9205 144.719 67.4169C144.312 66.9165 144.014 66.3341 143.823 65.6728C143.632 65.0115 143.534 64.3139 143.534 63.5828V57.3009C143.534 56.7124 143.625 56.1149 143.811 55.5112C143.993 54.9076 144.288 54.3555 144.695 53.8641C145.102 53.3697 145.627 52.9633 146.274 52.6448C146.918 52.3263 147.714 52.1685 148.653 52.1685C149.53 52.1685 150.287 52.3202 150.925 52.6235C151.563 52.9238 152.094 53.3182 152.516 53.8035C152.939 54.2888 153.248 54.8378 153.449 55.4506C153.649 56.0633 153.747 56.6791 153.747 57.3009V63.871Z" fill="white"/>
<path d="M163.121 61.4595H155.994V63.8255H163.121V61.4595Z" fill="white"/>
<path fill-rule="evenodd" clip-rule="evenodd" d="M164.697 65.1844C164.84 65.1359 165.028 65.0752 165.259 65.0055C165.49 64.9327 165.733 64.8538 165.988 64.7658C166.243 64.6779 166.486 64.596 166.717 64.5141C166.948 64.4352 167.136 64.3715 167.279 64.323C167.407 65.0085 167.701 65.5363 168.163 65.9094C168.625 66.2825 169.174 66.4706 169.812 66.4706C170.529 66.4706 171.091 66.2431 171.498 65.782C171.905 65.3209 172.109 64.7052 172.109 63.9286C172.109 63.5798 172.072 63.2553 172.002 62.955C171.93 62.6547 171.808 62.3877 171.632 62.1602C171.456 61.9297 171.225 61.7477 170.939 61.6142C170.651 61.4808 170.292 61.411 169.864 61.411H168.573V59.0936H169.888C170.557 59.0936 171.085 58.8934 171.468 58.493C171.851 58.0926 172.042 57.5162 172.042 56.764C172.042 56.1543 171.86 55.6629 171.492 55.2868C171.125 54.9106 170.608 54.7226 169.937 54.7226C169.284 54.7226 168.746 54.9137 168.324 55.2959C167.902 55.6781 167.61 56.1725 167.452 56.7761L164.94 55.8692C165.21 54.7256 165.781 53.8187 166.65 53.1483C167.519 52.4779 168.631 52.1443 169.985 52.1443C171.532 52.1443 172.719 52.5174 173.549 53.2666C174.378 54.0158 174.791 55.1139 174.791 56.5638C174.791 56.8338 174.764 57.1462 174.709 57.495C174.651 57.8469 174.557 58.1927 174.42 58.5324C174.284 58.8752 174.095 59.1937 173.846 59.4879C173.597 59.7821 173.284 60.0096 172.902 60.1674V60.2644C173.299 60.4252 173.631 60.6436 173.895 60.9196C174.156 61.1987 174.369 61.5141 174.53 61.863C174.688 62.2148 174.797 62.5758 174.852 62.9489C174.906 63.322 174.937 63.686 174.937 64.0348C174.937 64.8629 174.812 65.5879 174.566 66.2097C174.32 66.8315 173.968 67.3533 173.515 67.7749C173.059 68.1965 172.519 68.515 171.89 68.7304C171.258 68.9457 170.563 69.0519 169.797 69.0519C168.427 69.0519 167.291 68.7152 166.389 68.0388C165.484 67.3654 164.922 66.4129 164.697 65.1844Z" fill="white"/>
<path fill-rule="evenodd" clip-rule="evenodd" d="M181.294 59.5486L180.435 62.8913H183.831L182.995 59.5728C182.962 59.4303 182.91 59.1906 182.84 58.857C182.771 58.5233 182.689 58.1745 182.6 57.8074C182.512 57.4404 182.43 57.0946 182.348 56.7701C182.269 56.4425 182.221 56.2089 182.206 56.0663H182.087L181.294 59.5486ZM184.45 65.327H179.836C179.803 65.4696 179.739 65.7092 179.645 66.0429C179.551 66.3765 179.451 66.7344 179.347 67.1166C179.244 67.4988 179.147 67.8568 179.059 68.1904C178.971 68.5241 178.904 68.7637 178.855 68.9063H176.009L180.814 52.2868H183.445L188.275 68.9063H185.38L184.45 65.327Z" fill="white"/>
<path fill-rule="evenodd" clip-rule="evenodd" d="M197.196 68.9093V54.7984H192.676V68.9093H189.948V52.2899H199.921V68.9093H197.196Z" fill="white"/>
<path fill-rule="evenodd" clip-rule="evenodd" d="M206.855 59.5486L205.996 62.8913H209.392L208.557 59.5728C208.523 59.4303 208.471 59.1906 208.402 58.857C208.332 58.5233 208.25 58.1745 208.162 57.8074C208.074 57.4404 207.992 57.0946 207.91 56.7701C207.831 56.4425 207.782 56.2089 207.767 56.0663H207.648L206.855 59.5486ZM210.012 65.327H205.397C205.364 65.4696 205.303 65.7092 205.206 66.0429C205.112 66.3765 205.012 66.7344 204.908 67.1166C204.805 67.4988 204.708 67.8568 204.62 68.1904C204.532 68.5241 204.465 68.7637 204.416 68.9063H201.57L206.376 52.2868H209.006L213.836 68.9063H210.941L210.012 65.327Z" fill="white"/>
<path fill-rule="evenodd" clip-rule="evenodd" d="M223.954 66.4736V54.7741H219.841L219.65 59.7639C219.619 60.4798 219.586 61.1714 219.556 61.8417C219.522 62.5091 219.471 63.1309 219.401 63.7042C219.331 64.2775 219.231 64.7992 219.103 65.2663C218.975 65.7365 218.799 66.1399 218.577 66.4736H223.954ZM216.709 72.3248H214.343V66.6647C214.55 66.6344 214.75 66.598 214.941 66.5585C215.133 66.5191 215.33 66.4736 215.54 66.4281C215.889 66.1248 216.166 65.7759 216.363 65.3786C216.564 64.9812 216.722 64.4898 216.84 63.9105C216.958 63.3311 217.044 62.6456 217.092 61.8569C217.141 61.0682 217.18 60.1431 217.211 59.0754L217.451 52.2929H226.633C226.633 54.6649 226.636 57.0279 226.645 59.3848C226.654 61.7416 226.657 64.1046 226.657 66.4766H227.973V72.3279H225.606V68.9093H216.709V72.3248Z" fill="white"/>
<path fill-rule="evenodd" clip-rule="evenodd" d="M207.657 83.1598V91.7258H206.427V83.1598H203.809V82.1072H210.297V83.1598H207.657ZM201.54 91.7228V87.3336H197.497V91.7228H196.267V82.086H197.497V86.2993H201.54V82.086H202.77V91.7228H201.54ZM193.511 86.184C193.511 85.7381 193.481 85.3256 193.423 84.9464C193.366 84.5672 193.262 84.2396 193.114 83.9636C192.965 83.6906 192.755 83.4752 192.491 83.3266C192.227 83.1749 191.88 83.1021 191.452 83.1021C191.036 83.1021 190.693 83.181 190.422 83.3388C190.149 83.4965 189.933 83.7149 189.772 83.997C189.608 84.2791 189.496 84.6097 189.432 84.9889C189.368 85.368 189.329 85.7806 189.317 86.2264H193.518V86.184H193.511ZM194.468 90.0666C194.222 90.6247 193.843 91.0615 193.335 91.374C192.828 91.6864 192.254 91.8441 191.616 91.8441C190.926 91.8441 190.352 91.744 189.897 91.5408C189.441 91.3376 189.077 91.0312 188.803 90.6126C188.53 90.197 188.335 89.6753 188.217 89.0505C188.098 88.4256 188.041 87.6915 188.041 86.8452C188.041 86.2356 188.086 85.635 188.177 85.0526C188.269 84.4671 188.442 83.9484 188.694 83.4904C188.949 83.0354 189.292 82.6684 189.73 82.3863C190.167 82.1072 190.729 81.9677 191.419 81.9677C192.005 81.9677 192.509 82.0678 192.934 82.271C193.357 82.4743 193.703 82.7533 193.97 83.1113C194.237 83.4692 194.432 83.8938 194.556 84.3883C194.681 84.8827 194.742 85.4226 194.742 86.0081V87.2183H189.271C189.271 87.7522 189.304 88.2315 189.368 88.6622C189.432 89.0929 189.553 89.463 189.73 89.7754C189.906 90.0879 190.137 90.3305 190.428 90.4973C190.72 90.6672 191.1 90.7521 191.567 90.7521C191.98 90.7521 192.357 90.6369 192.694 90.4003C193.032 90.1667 193.278 89.8816 193.432 89.5419L194.468 90.0666ZM183.056 83.1598V91.7258H181.826V82.089H187.725V83.1628H183.056V83.1598ZM178.661 87.1971H176.474C175.887 87.1971 175.404 87.3397 175.028 87.6278C174.651 87.913 174.463 88.368 174.463 88.9928C174.463 89.4994 174.633 89.915 174.97 90.2304C175.307 90.5489 175.808 90.7097 176.474 90.7097C176.762 90.7097 177.033 90.6763 177.294 90.6126C177.555 90.5459 177.786 90.4458 177.986 90.3093C178.19 90.1728 178.351 89.9908 178.475 89.7633C178.6 89.5358 178.661 89.2537 178.661 88.914V87.1971ZM178.603 90.9038C178.342 91.2557 177.989 91.4983 177.549 91.6348C177.106 91.7713 176.632 91.8411 176.121 91.8411C175.198 91.8411 174.496 91.5772 174.019 91.0494C173.546 90.5216 173.306 89.8634 173.306 89.0687C173.306 88.6652 173.366 88.283 173.491 87.919C173.615 87.555 173.807 87.2426 174.068 86.9818C174.329 86.7209 174.66 86.5146 175.064 86.3569C175.468 86.2022 175.951 86.1233 176.51 86.1233H178.661V84.7887C178.661 84.2669 178.503 83.8544 178.181 83.5511C177.862 83.2508 177.376 83.0991 176.726 83.0991C176.282 83.0991 175.878 83.175 175.514 83.3236C175.149 83.4722 174.87 83.7179 174.672 84.0546C174.53 83.9757 174.372 83.8787 174.202 83.7604C174.031 83.6451 173.877 83.5389 173.734 83.4479C174.007 82.9838 174.399 82.6199 174.906 82.359C175.414 82.0981 176.021 81.9677 176.723 81.9677C177.166 81.9677 177.582 82.0132 177.974 82.1042C178.366 82.1952 178.703 82.3529 178.986 82.5713C179.268 82.7928 179.49 83.087 179.651 83.451C179.812 83.815 179.891 84.27 179.891 84.816V91.7228H178.661V90.922L178.603 90.9038ZM168.473 83.0991C168.057 83.0991 167.689 83.1931 167.364 83.3812C167.039 83.5693 166.787 83.8514 166.605 84.2245C166.462 84.4823 166.371 84.8615 166.331 85.3589C166.292 85.8564 166.274 86.4357 166.274 87.097C166.274 87.7583 166.307 88.3103 166.371 88.7562C166.435 89.2021 166.559 89.554 166.741 89.8148C167.091 90.4245 167.656 90.7279 168.433 90.7279C168.862 90.7279 169.25 90.6217 169.6 90.4094C169.949 90.197 170.204 89.8634 170.359 89.4084C170.462 89.1506 170.526 88.7896 170.553 88.3316C170.578 87.8735 170.593 87.37 170.593 86.827C170.593 86.2447 170.569 85.7381 170.526 85.3043C170.481 84.8706 170.405 84.5369 170.301 84.3033C170.146 83.9029 169.91 83.5996 169.591 83.3994C169.272 83.1992 168.901 83.0991 168.473 83.0991ZM168.5 81.9677C169.15 81.9677 169.697 82.0951 170.131 82.3469C170.569 82.5986 170.915 82.9293 171.176 83.3327C171.425 83.6724 171.592 84.1638 171.683 84.816C171.775 85.4681 171.82 86.1688 171.82 86.9241C171.82 87.1577 171.814 87.4155 171.802 87.6946C171.79 87.9736 171.765 88.2527 171.732 88.5348C171.699 88.8139 171.662 89.0778 171.617 89.3265C171.571 89.5722 171.522 89.7815 171.471 89.9513C171.222 90.6551 170.815 91.1495 170.25 91.4346C169.685 91.7228 169.047 91.8654 168.345 91.8654C167.68 91.8654 167.136 91.741 166.714 91.4953C166.292 91.2466 165.961 90.9281 165.727 90.5398C165.466 90.1879 165.286 89.7057 165.189 89.0869C165.092 88.4681 165.043 87.7643 165.043 86.9696C165.043 86.3448 165.068 85.7624 165.122 85.2224C165.174 84.6825 165.271 84.2305 165.414 83.8665C165.66 83.2568 166.049 82.7867 166.577 82.4621C167.106 82.1315 167.747 81.9677 168.5 81.9677ZM160.198 83.1598V91.7258H158.968V82.089H164.87V83.1628H160.198V83.1598ZM153.741 90.652C154.22 90.652 154.6 90.5489 154.877 90.3396C155.156 90.1303 155.366 89.8513 155.508 89.4994C155.651 89.1475 155.745 88.7471 155.791 88.2952C155.836 87.8462 155.858 87.3791 155.858 86.8968C155.858 86.3872 155.833 85.9019 155.791 85.4378C155.745 84.9767 155.651 84.5703 155.508 84.2245C155.366 83.8787 155.159 83.6057 154.886 83.4025C154.612 83.1992 154.245 83.0991 153.777 83.0991C153.27 83.0991 152.878 83.2205 152.601 83.4601C152.322 83.7027 152.118 84.0091 151.988 84.3792C151.857 84.7523 151.778 85.1587 151.754 85.6016C151.727 86.0445 151.714 86.4691 151.714 86.8725C151.714 87.2638 151.727 87.6824 151.754 88.1253C151.778 88.5682 151.86 88.9746 151.997 89.3477C152.134 89.7208 152.334 90.0302 152.598 90.2759C152.869 90.5277 153.248 90.652 153.741 90.652ZM151.717 83.1992C151.73 83.1992 151.742 83.2053 151.757 83.2174C152.055 82.7624 152.407 82.4409 152.808 82.2528C153.212 82.0648 153.646 81.9707 154.114 81.9707C154.776 81.9707 155.305 82.1072 155.7 82.3802C156.095 82.6532 156.395 83.0142 156.596 83.4631C156.796 83.912 156.93 84.4307 156.997 85.0253C157.061 85.6168 157.094 86.2325 157.094 86.8695C157.094 87.4792 157.058 88.0828 156.988 88.6743C156.915 89.2658 156.769 89.7967 156.55 90.2638C156.329 90.7309 156.016 91.1101 155.606 91.3952C155.199 91.6834 154.655 91.8259 153.98 91.8259C153.488 91.8259 153.066 91.7289 152.714 91.5347C152.365 91.3406 152.046 91.0615 151.76 90.6945H151.721V95.6509H150.49V82.1042H151.721V83.1992H151.717ZM147.674 86.184C147.674 85.7381 147.644 85.3256 147.586 84.9464C147.529 84.5672 147.425 84.2396 147.277 83.9636C147.128 83.6906 146.918 83.4752 146.654 83.3266C146.39 83.1749 146.043 83.1021 145.615 83.1021C145.199 83.1021 144.859 83.181 144.585 83.3388C144.312 83.4965 144.096 83.7149 143.935 83.997C143.774 84.2791 143.659 84.6097 143.595 84.9889C143.531 85.368 143.492 85.7806 143.48 86.2264H147.681V86.184H147.674ZM148.631 90.0666C148.385 90.6247 148.006 91.0615 147.498 91.374C146.991 91.6864 146.417 91.8441 145.779 91.8441C145.09 91.8441 144.515 91.744 144.06 91.5408C143.604 91.3376 143.24 91.0312 142.966 90.6126C142.693 90.197 142.498 89.6753 142.38 89.0505C142.262 88.4256 142.204 87.6915 142.204 86.8452C142.204 86.2356 142.249 85.635 142.341 85.0526C142.432 84.4671 142.605 83.9484 142.857 83.4904C143.109 83.0354 143.455 82.6684 143.893 82.3863C144.33 82.1072 144.892 81.9677 145.582 81.9677C146.168 81.9677 146.672 82.0678 147.097 82.271C147.52 82.4743 147.866 82.7533 148.133 83.1113C148.4 83.4692 148.595 83.8938 148.719 84.3883C148.844 84.8827 148.905 85.4226 148.905 86.0081V87.2183H143.434C143.434 87.7522 143.467 88.2315 143.531 88.6622C143.595 89.0929 143.717 89.463 143.89 89.7754C144.066 90.0879 144.297 90.3305 144.588 90.4973C144.88 90.6672 145.26 90.7521 145.727 90.7521C146.141 90.7521 146.517 90.6369 146.854 90.4003C147.192 90.1667 147.438 89.8816 147.592 89.5419L148.631 90.0666ZM139.233 91.7228V87.3336H135.19V91.7228H133.96V82.086H135.19V86.2993H139.233V82.086H140.463V91.7228H139.233ZM126.806 89.5783C126.949 89.8907 127.183 90.1576 127.511 90.379C127.836 90.6005 128.222 90.7097 128.665 90.7097C129.121 90.7097 129.495 90.6126 129.789 90.4154C130.081 90.2213 130.315 89.9635 130.482 89.645C130.652 89.3265 130.77 88.9595 130.843 88.5409C130.913 88.1253 130.956 87.7037 130.971 87.2729H127.414V86.278H130.971C130.959 85.8473 130.916 85.4408 130.843 85.0617C130.77 84.6825 130.649 84.3458 130.473 84.0516C130.297 83.7574 130.063 83.5238 129.768 83.3539C129.476 83.184 129.094 83.0991 128.626 83.0991C128.222 83.0991 127.854 83.2053 127.52 83.4206C127.189 83.636 126.949 83.9242 126.806 84.2882L125.771 83.6845C126.02 83.1416 126.399 82.72 126.913 82.4166C127.426 82.1163 128.015 81.9677 128.681 81.9677C129.346 81.9677 129.905 82.0921 130.36 82.3378C130.816 82.5865 131.177 82.9262 131.448 83.363C131.718 83.7998 131.91 84.3124 132.025 84.9039C132.14 85.4954 132.198 86.1294 132.198 86.8058C132.186 87.5095 132.128 88.1647 132.025 88.7775C131.922 89.3872 131.742 89.921 131.487 90.376C131.232 90.831 130.871 91.1889 130.409 91.4498C129.947 91.7107 129.352 91.8411 128.623 91.8411C127.93 91.8411 127.341 91.6925 126.855 91.3922C126.366 91.0919 125.998 90.6702 125.752 90.1242L126.806 89.5783ZM123.72 88.8654C123.72 88.3862 123.574 88.0009 123.28 87.7128C122.988 87.4216 122.502 87.276 121.825 87.276H119.616V90.5914H121.688C122.314 90.5914 122.809 90.4579 123.173 90.194C123.535 89.9301 123.72 89.4873 123.72 88.8654ZM123.523 84.6825C123.523 84.2123 123.35 83.8514 123.006 83.5905C122.663 83.3296 122.192 83.1992 121.597 83.1992H119.613V86.2234H121.557C122.101 86.2234 122.566 86.1021 122.946 85.8625C123.331 85.6198 123.523 85.2255 123.523 84.6825ZM124.911 88.914C124.911 89.4084 124.829 89.83 124.668 90.1819C124.504 90.5337 124.288 90.8219 124.012 91.0494C123.738 91.2769 123.42 91.4468 123.055 91.556C122.69 91.6682 122.299 91.7228 121.882 91.7228H118.386V82.1042H121.974C122.915 82.1042 123.614 82.3378 124.07 82.8079C124.528 83.2751 124.756 83.8938 124.756 84.6613C124.756 85.0768 124.668 85.4651 124.489 85.823C124.31 86.181 123.988 86.4721 123.526 86.6905H123.547C123.808 86.7815 124.024 86.9089 124.2 87.0727C124.376 87.2335 124.516 87.4125 124.619 87.6096C124.723 87.8038 124.799 88.0161 124.844 88.2436C124.89 88.4681 124.911 88.6925 124.911 88.914ZM113.198 83.0991C112.782 83.0991 112.414 83.1931 112.089 83.3812C111.764 83.5693 111.512 83.8514 111.33 84.2245C111.187 84.4823 111.096 84.8615 111.057 85.3589C111.017 85.8564 110.999 86.4357 110.999 87.097C110.999 87.7583 111.032 88.3103 111.096 88.7562C111.16 89.2021 111.284 89.554 111.467 89.8148C111.816 90.4245 112.381 90.7279 113.159 90.7279C113.587 90.7279 113.976 90.6217 114.325 90.4094C114.674 90.197 114.93 89.8634 115.084 89.4084C115.188 89.1506 115.255 88.7896 115.279 88.3316C115.303 87.8735 115.318 87.37 115.318 86.827C115.318 86.2447 115.294 85.7381 115.251 85.3043C115.206 84.8706 115.133 84.5369 115.027 84.3033C114.872 83.9029 114.635 83.5996 114.316 83.3994C113.997 83.1992 113.626 83.0991 113.198 83.0991ZM113.228 81.9677C113.879 81.9677 114.422 82.0951 114.86 82.3469C115.297 82.5986 115.643 82.9293 115.905 83.3327C116.151 83.6724 116.321 84.1638 116.412 84.816C116.503 85.4681 116.549 86.1688 116.549 86.9241C116.549 87.1577 116.542 87.4155 116.527 87.6946C116.515 87.9736 116.491 88.2527 116.46 88.5348C116.427 88.8139 116.388 89.0778 116.342 89.3265C116.296 89.5722 116.248 89.7815 116.196 89.9513C115.947 90.6551 115.543 91.1495 114.975 91.4346C114.407 91.7228 113.772 91.8654 113.071 91.8654C112.405 91.8654 111.862 91.741 111.439 91.4953C111.017 91.2466 110.686 90.9281 110.452 90.5398C110.191 90.1879 110.012 89.7057 109.914 89.0869C109.817 88.4681 109.769 87.7643 109.769 86.9696C109.769 86.3448 109.796 85.7624 109.848 85.2224C109.899 84.6825 109.996 84.2305 110.139 83.8665C110.385 83.2568 110.774 82.7867 111.303 82.4621C111.831 82.1315 112.472 81.9677 113.228 81.9677ZM101.935 82.086H103.165V86.3599H104.611C104.793 86.3599 104.975 86.3448 105.158 86.3114C105.34 86.278 105.513 86.2113 105.674 86.1051C105.838 86.002 105.987 85.8594 106.124 85.6774C106.26 85.4954 106.376 85.2497 106.467 84.9373L107.287 82.089H108.459L107.658 84.8797C107.515 85.3468 107.339 85.7411 107.129 86.0596C106.919 86.3781 106.64 86.5904 106.291 86.6936C106.734 86.7967 107.056 87.0181 107.257 87.3579C107.457 87.6946 107.624 88.1071 107.755 88.5864L108.654 91.7289H107.424L106.643 88.8988C106.552 88.5864 106.449 88.3285 106.33 88.1283C106.212 87.9281 106.075 87.7704 105.92 87.6612C105.762 87.552 105.592 87.4762 105.404 87.4367C105.215 87.3973 105.009 87.3791 104.787 87.3791H103.165V91.7289H101.935V82.086ZM99.5898 89.5783C99.7599 89.6814 99.9269 89.7754 100.097 89.8604C100.267 89.9453 100.443 90.0332 100.626 90.1242C100.392 90.6702 100.027 91.0919 99.5321 91.3922C99.0369 91.6925 98.4446 91.8411 97.7551 91.8411C97.0261 91.8411 96.4337 91.7137 95.9781 91.4589C95.5225 91.2041 95.164 90.8553 94.9028 90.4063C94.6416 89.9574 94.4624 89.4205 94.3652 88.7957C94.268 88.1708 94.2193 87.4944 94.2193 86.7664C94.2193 86.09 94.2801 85.459 94.4046 84.8736C94.5292 84.2882 94.7297 83.7816 95.0091 83.3509C95.2886 82.9202 95.6561 82.5835 96.1118 82.3347C96.5674 82.089 97.1293 81.9647 97.7915 81.9647C98.4963 81.9647 99.0855 82.1133 99.5594 82.4136C100.036 82.7139 100.398 83.1355 100.644 83.6815L99.608 84.2851C99.4652 83.9211 99.2374 83.633 98.9245 83.4176C98.6117 83.2023 98.2411 83.0961 97.8098 83.0961C97.3025 83.0961 96.8924 83.1962 96.5795 83.3994C96.2667 83.6027 96.0297 83.8726 95.8657 84.2123C95.7017 84.5521 95.5923 84.9434 95.5346 85.3862C95.4769 85.8291 95.4465 86.2932 95.4465 86.7755C95.4465 87.2578 95.4739 87.734 95.5255 88.2042C95.5771 88.6743 95.6895 89.0929 95.8566 89.466C96.0267 89.8361 96.2636 90.1364 96.5704 90.3669C96.8772 90.5944 97.2782 90.7097 97.7733 90.7097C98.2168 90.7097 98.5934 90.6035 98.9063 90.3881C99.2192 90.1728 99.447 89.9028 99.5898 89.5783ZM91.0512 91.7228V79.2741H85.9116V91.7228H84.6814V78.1427H92.3421V91.7228H91.0512Z" fill="white"/>
<path fill-rule="evenodd" clip-rule="evenodd" d="M95.1823 24.2985C94.5687 24.8051 93.8488 25.0478 93.0529 25.0478H90.146V18.5383H93.0074C93.9703 18.5383 94.7236 18.784 95.2764 19.2815C95.8232 19.7668 96.1057 20.5767 96.1057 21.7081C96.1026 22.9336 95.7958 23.789 95.1823 24.2985ZM99.0916 15.4929C98.3596 14.8134 97.4604 14.3129 96.4216 13.9884C95.3736 13.6547 94.2406 13.5 93.0043 13.5H84.6844V39.6895H90.1429V30.1346H93.3142C94.5687 30.1346 95.6986 29.9344 96.7041 29.528C97.7034 29.1276 98.5691 28.5664 99.2769 27.8475C99.9634 27.1135 100.513 26.2277 100.893 25.1964C101.263 24.1772 101.455 23.0337 101.455 21.787C101.455 20.3553 101.245 19.1237 100.835 18.0742C100.422 17.0247 99.8358 16.1723 99.0916 15.4929Z" fill="white"/>
<path fill-rule="evenodd" clip-rule="evenodd" d="M116.785 31.8242C116.785 32.7069 116.512 33.3863 115.941 33.8929C115.376 34.3934 114.699 34.6482 113.93 34.6482C112.846 34.6482 112.077 34.3266 111.609 33.6745C111.142 33.0223 110.911 32.1942 110.911 31.1841V21.4745C110.911 21.1742 110.965 20.8557 111.075 20.5191C111.196 20.1763 111.369 19.8669 111.609 19.5757C111.849 19.2936 112.156 19.057 112.536 18.8659C112.913 18.6718 113.383 18.5747 113.93 18.5747C114.474 18.5747 114.939 18.693 115.3 18.8932C115.671 19.1177 115.962 19.3634 116.19 19.6667C116.403 19.9731 116.57 20.2916 116.658 20.6161C116.746 20.9346 116.782 21.2319 116.782 21.4745V31.8242H116.785ZM120.26 15.963C119.583 15.1774 118.72 14.5374 117.66 14.049C116.6 13.5546 115.361 13.3119 113.933 13.3119C112.393 13.3119 111.09 13.5637 110.03 14.0794C108.961 14.592 108.089 15.2563 107.418 16.0631C106.731 16.8639 106.233 17.7588 105.935 18.7537C105.644 19.7365 105.477 20.7314 105.477 21.7081V31.0325C105.477 32.2246 105.644 33.3499 105.957 34.4237C106.282 35.5096 106.774 36.45 107.445 37.2659C108.134 38.0788 109 38.7249 110.069 39.2012C111.136 39.6835 112.436 39.917 113.933 39.917C115.16 39.917 116.281 39.7229 117.305 39.3346C118.326 38.9464 119.206 38.3882 119.935 37.6451C120.692 36.9019 121.26 36.0132 121.67 34.9636C122.086 33.9263 122.299 32.7554 122.299 31.4511V21.7051C122.299 20.6738 122.126 19.6606 121.791 18.6536C121.442 17.6526 120.944 16.7487 120.26 15.963Z" fill="white"/>
<path fill-rule="evenodd" clip-rule="evenodd" d="M133.191 20.5191C133.289 20.1763 133.45 19.8669 133.683 19.5757C133.905 19.2936 134.209 19.0509 134.573 18.8629C134.956 18.6718 135.418 18.5808 135.983 18.5808C136.499 18.5808 136.955 18.6809 137.332 18.875C137.702 19.0813 138.021 19.327 138.267 19.5909C138.516 19.8699 138.702 20.1763 138.826 20.5191C138.932 20.8557 139.011 21.1591 139.066 21.3987L144.233 19.8548C144.06 19.0085 143.744 18.1864 143.331 17.3887C142.887 16.6 142.337 15.9084 141.66 15.3109C140.989 14.7012 140.166 14.2159 139.215 13.8549C138.258 13.4879 137.183 13.315 135.983 13.315C134.44 13.315 133.143 13.5637 132.067 14.0794C131.004 14.598 130.142 15.2563 129.47 16.0601C128.808 16.8639 128.313 17.7587 128.018 18.7567C127.712 19.7365 127.554 20.7314 127.554 21.7111V31.0385C127.554 32.2276 127.721 33.3499 128.04 34.4267C128.356 35.5066 128.845 36.45 129.507 37.269C130.169 38.0819 131.047 38.728 132.11 39.2012C133.17 39.6865 134.47 39.9261 135.98 39.9261C138.106 39.9261 139.92 39.3437 141.396 38.1941C142.872 37.0354 143.811 35.4429 144.19 33.4136L138.987 31.9061C138.881 32.7615 138.547 33.4288 137.963 33.9202C137.389 34.4055 136.712 34.6542 135.977 34.6542C134.88 34.6542 134.13 34.3388 133.683 33.6806C133.246 33.0284 133.024 32.2003 133.024 31.1932V21.4806C133.033 21.1773 133.076 20.8557 133.191 20.5191Z" fill="white"/>
<path fill-rule="evenodd" clip-rule="evenodd" d="M154.442 20.5191C154.549 20.1763 154.713 19.8669 154.928 19.5757C155.159 19.2936 155.463 19.0509 155.833 18.8629C156.213 18.6718 156.681 18.5808 157.231 18.5808C157.756 18.5808 158.2 18.6809 158.582 18.875C158.962 19.0813 159.272 19.327 159.527 19.5909C159.779 19.8699 159.965 20.1763 160.071 20.5191C160.177 20.8557 160.265 21.1591 160.317 21.3987L165.481 19.8548C165.305 19.0085 165.007 18.1864 164.576 17.3887C164.156 16.6 163.594 15.9084 162.917 15.3109C162.237 14.7012 161.416 14.2159 160.475 13.8549C159.512 13.4879 158.428 13.315 157.234 13.315C155.697 13.315 154.4 13.5637 153.333 14.0794C152.258 14.598 151.392 15.2563 150.73 16.0601C150.068 16.8639 149.582 17.7587 149.278 18.7567C148.981 19.7365 148.832 20.7314 148.832 21.7111V31.0385C148.832 32.2276 148.981 33.3499 149.3 34.4267C149.609 35.5066 150.092 36.45 150.767 37.269C151.432 38.0819 152.307 38.728 153.373 39.2012C154.433 39.6865 155.721 39.9261 157.237 39.9261C159.369 39.9261 161.173 39.3437 162.659 38.1941C164.138 37.0354 165.065 35.4429 165.444 33.4136L160.25 31.9C160.153 32.7554 159.8 33.4227 159.226 33.9141C158.652 34.3994 157.99 34.6482 157.234 34.6482C156.149 34.6482 155.39 34.3327 154.953 33.6745C154.509 33.0223 154.29 32.1942 154.29 31.1872V21.4745C154.29 21.1773 154.342 20.8557 154.442 20.5191Z" fill="white"/>
<path fill-rule="evenodd" clip-rule="evenodd" d="M170.687 39.6895H185.945V34.539H176.149V28.9698H184.587V23.9588H176.149V18.5444H185.945V13.5H170.687V39.6895Z" fill="white"/>
<path fill-rule="evenodd" clip-rule="evenodd" d="M188.958 18.4655H194.575V39.6895H200.003V18.4655H205.613V13.5H188.958V18.4655Z" fill="white"/>
<path fill-rule="evenodd" clip-rule="evenodd" d="M223.067 13.5L215.57 28.7029H215.494V13.5H210.063V39.6895H215.188L222.502 25.433H222.535V39.6895H228V13.5H223.067Z" fill="white"/>
<path fill-rule="evenodd" clip-rule="evenodd" d="M43.0576 22.1601L22.1894 69.4705C26.3904 71.1904 30.9893 72.1519 35.8342 72.1519C40.5546 72.1519 45.0563 71.2328 49.1904 69.5676L44.0114 22.3026C43.6772 22.2875 43.3613 22.242 43.0576 22.1601Z" fill="white"/>
<path fill-rule="evenodd" clip-rule="evenodd" d="M40.7126 20.7556L1.4793 46.5691C4.16755 55.6022 10.3277 63.1339 18.4107 67.6414L41.4355 21.4108C41.1803 21.2228 40.9252 21.0013 40.7126 20.7556Z" fill="white"/>
<path fill-rule="evenodd" clip-rule="evenodd" d="M45.7944 22.0539L53.1393 67.7021C61.2982 63.1794 67.513 55.5992 70.1861 46.475L46.9517 21.5079C46.6054 21.7415 46.2045 21.9265 45.7944 22.0539Z" fill="white"/>
<path fill-rule="evenodd" clip-rule="evenodd" d="M41.2229 13.7396L33.7231 0.650925C23.9695 1.21209 15.2608 5.668 9.13397 12.496L39.6221 16.142C39.9015 15.1865 40.4604 14.3584 41.2229 13.7396Z" fill="white"/>
<path fill-rule="evenodd" clip-rule="evenodd" d="M65.1042 15.7568L49.0932 17.6799C49.0537 18.6141 48.7591 19.4817 48.27 20.1975L71.2249 41.9251C71.5014 40.1203 71.6563 38.2639 71.6563 36.365C71.6563 28.6847 69.2232 21.5777 65.1042 15.7568Z" fill="white"/>
<path fill-rule="evenodd" clip-rule="evenodd" d="M39.4763 18.0105L6.18146 16.2694C2.27818 21.9963 0 28.9092 0 36.3681C0 38.3731 0.167067 40.3538 0.492087 42.2648L39.7436 19.2238C39.5978 18.8447 39.5157 18.4291 39.4763 18.0105Z" fill="white"/>
<path fill-rule="evenodd" clip-rule="evenodd" d="M44.3698 12.6416C46.3442 12.6931 48.0149 13.9095 48.7378 15.6294L62.4099 12.3807C56.3348 5.65891 47.7324 1.26669 38.1002 0.663058L43.1548 12.7902C43.5405 12.7053 43.9445 12.6385 44.3698 12.6416Z" fill="white"/>
</svg>
