<svg width="80" height="80" viewBox="0 0 80 80" fill="none" xmlns="http://www.w3.org/2000/svg">
<path d="M35.94 45.22L29.6325 38.9125C29.1008 38.3808 28.4367 38.1276 27.6402 38.1527C26.8417 38.1759 26.1767 38.4533 25.645 38.985C25.1133 39.5167 24.8475 40.1933 24.8475 41.015C24.8475 41.8367 25.1133 42.5133 25.645 43.045L33.91 51.31C34.4417 51.8417 35.1183 52.1075 35.94 52.1075C36.7617 52.1075 37.4383 51.8417 37.97 51.31L54.4275 34.8525C54.9592 34.3208 55.2134 33.6558 55.1902 32.8573C55.1651 32.0608 54.8867 31.3967 54.355 30.865C53.8233 30.3333 53.1467 30.0675 52.325 30.0675C51.5033 30.0675 50.8267 30.3333 50.295 30.865L35.94 45.22ZM40 69C35.9883 69 32.2183 68.2383 28.69 66.7148C25.1617 65.1933 22.0925 63.1275 19.4825 60.5175C16.8725 57.9075 14.8067 54.8383 13.2852 51.31C11.7617 47.7817 11 44.0117 11 40C11 35.9883 11.7617 32.2183 13.2852 28.69C14.8067 25.1617 16.8725 22.0925 19.4825 19.4825C22.0925 16.8725 25.1617 14.8058 28.69 13.2823C32.2183 11.7608 35.9883 11 40 11C44.0117 11 47.7817 11.7608 51.31 13.2823C54.8383 14.8058 57.9075 16.8725 60.5175 19.4825C63.1275 22.0925 65.1933 25.1617 66.7148 28.69C68.2383 32.2183 69 35.9883 69 40C69 44.0117 68.2383 47.7817 66.7148 51.31C65.1933 54.8383 63.1275 57.9075 60.5175 60.5175C57.9075 63.1275 54.8383 65.1933 51.31 66.7148C47.7817 68.2383 44.0117 69 40 69ZM40 63.2C46.4283 63.2 51.9026 60.9409 56.4227 56.4227C60.9409 51.9026 63.2 46.4283 63.2 40C63.2 33.5717 60.9409 28.0974 56.4227 23.5773C51.9026 19.0591 46.4283 16.8 40 16.8C33.5717 16.8 28.0984 19.0591 23.5802 23.5773C19.0601 28.0974 16.8 33.5717 16.8 40C16.8 46.4283 19.0601 51.9026 23.5802 56.4227C28.0984 60.9409 33.5717 63.2 40 63.2Z" fill="white"/>
</svg>
