<svg width="80" height="80" viewBox="0 0 80 80" fill="none" xmlns="http://www.w3.org/2000/svg">
<path d="M31.2901 42.9166C31.2901 44.9057 30.4209 46.8133 28.8738 48.2199C27.3266 49.6264 25.2282 50.4166 23.0401 50.4166C20.8521 50.4166 18.7537 49.6264 17.2065 48.2199C15.6593 46.8133 14.7901 44.9057 14.7901 42.9166C14.7901 40.9274 15.6593 39.0198 17.2065 37.6133C18.7537 36.2067 20.8521 35.4166 23.0401 35.4166C25.2282 35.4166 27.3266 36.2067 28.8738 37.6133C30.4209 39.0198 31.2901 40.9274 31.2901 42.9166ZM26.7068 42.9166C26.7068 42.0325 26.3205 41.1847 25.6328 40.5595C24.9452 39.9344 24.0126 39.5832 23.0401 39.5832C22.0677 39.5832 21.135 39.9344 20.4474 40.5595C19.7598 41.1847 19.3735 42.0325 19.3735 42.9166C19.3735 43.8006 19.7598 44.6485 20.4474 45.2736C21.135 45.8987 22.0677 46.2499 23.0401 46.2499C24.0126 46.2499 24.9452 45.8987 25.6328 45.2736C26.3205 44.6485 26.7068 43.8006 26.7068 42.9166ZM14.7901 25.8332C14.7901 24.6832 15.8168 23.7499 17.0818 23.7499H54.6651C55.2729 23.7499 55.8558 23.9694 56.2856 24.3601C56.7153 24.7508 56.9568 25.2807 56.9568 25.8332C56.9568 26.3858 56.7153 26.9157 56.2856 27.3064C55.8558 27.6971 55.2729 27.9166 54.6651 27.9166H17.0818C15.8168 27.9166 14.7901 26.9832 14.7901 25.8332ZM37.2485 41.2499C36.6407 41.2499 36.0578 41.4694 35.628 41.8601C35.1982 42.2508 34.9568 42.7807 34.9568 43.3332C34.9568 43.8858 35.1982 44.4157 35.628 44.8064C36.0578 45.1971 36.6407 45.4166 37.2485 45.4166H54.6651C55.2729 45.4166 55.8558 45.1971 56.2856 44.8064C56.7153 44.4157 56.9568 43.8858 56.9568 43.3332C56.9568 42.7807 56.7153 42.2508 56.2856 41.8601C55.8558 41.4694 55.2729 41.2499 54.6651 41.2499H37.2485Z" fill="white"/>
<path d="M16.1666 8.74989C13.3707 8.74989 10.6894 9.75956 8.71247 11.5568C6.73552 13.354 5.62489 15.7916 5.62489 18.3332V54.1666C5.62489 56.7082 6.73552 59.1458 8.71247 60.943C10.6894 62.7402 13.3707 63.7499 16.1666 63.7499H55.5832C58.379 63.7499 61.0604 62.7402 63.0373 60.943C65.0143 59.1458 66.1249 56.7082 66.1249 54.1666V18.3332C66.1249 15.7916 65.0143 13.354 63.0373 11.5568C61.0604 9.75956 58.379 8.74989 55.5832 8.74989H16.1666ZM10.2082 18.3332C10.2082 16.8966 10.836 15.5189 11.9534 14.5031C13.0708 13.4872 14.5863 12.9166 16.1666 12.9166H55.5832C57.1635 12.9166 58.679 13.4872 59.7964 14.5031C60.9138 15.5189 61.5416 16.8966 61.5416 18.3332V54.1666C61.5416 54.9266 61.3692 55.6499 61.0576 56.3082C60.5986 57.2818 59.835 58.1113 58.8617 58.6936C57.8884 59.2758 56.7484 59.5852 55.5832 59.5832H16.1666C14.9911 59.5856 13.8413 59.2709 12.8626 58.679C11.8839 58.0872 11.1203 57.2447 10.6684 56.2582C10.3635 55.5958 10.2071 54.8847 10.2082 54.1666V18.3332Z" fill="white"/>
<path d="M24.4168 71.2501C22.702 71.2512 21.0129 70.8716 19.4962 70.1443C17.9796 69.417 16.6812 68.364 15.7139 67.0768C15.8643 67.0818 16.0146 67.0834 16.1668 67.0834H55.5834C59.3517 67.0834 62.9657 65.7226 65.6302 63.3002C68.2948 60.8779 69.7918 57.5925 69.7918 54.1668V18.3334C69.7918 18.1968 69.7881 18.0584 69.7844 17.9218C71.2004 18.8011 72.3587 19.9814 73.1587 21.3602C73.9587 22.739 74.3763 24.2746 74.3751 25.8334V54.1668C74.3751 63.6001 65.9601 71.2501 55.5834 71.2501H24.4168Z" fill="white"/>
</svg>
