<svg width="80" height="80" viewBox="0 0 80 80" fill="none" xmlns="http://www.w3.org/2000/svg">
<path fill-rule="evenodd" clip-rule="evenodd" d="M40 17.5C35.2261 17.5 30.6477 19.3965 27.2721 22.7722C23.8964 26.1478 22 30.7262 22 35.5002C22 42.4709 26.5354 49.2348 31.5084 54.4841C33.9489 57.0602 36.397 59.1691 38.2375 60.6348C38.9225 61.1802 39.5208 61.6346 40 61.9887C40.4792 61.6346 41.0775 61.1802 41.7625 60.6348C43.603 59.1691 46.0511 57.0602 48.4916 54.4841C53.4646 49.2348 58 42.4709 58 35.5002C58 30.7262 56.1036 26.1478 52.7279 22.7722C49.3523 19.3965 44.7739 17.5 40 17.5ZM40 64.7504C38.7519 66.6225 38.7507 66.6217 38.7507 66.6217L38.7443 66.6174L38.7293 66.6073L38.6777 66.5725C38.6339 66.5427 38.5714 66.5 38.4915 66.4446C38.3317 66.3339 38.102 66.1727 37.8125 65.9636C37.2337 65.5456 36.4143 64.9354 35.4344 64.155C33.478 62.5972 30.8636 60.3467 28.2416 57.579C23.0896 52.1407 17.5 44.2796 17.5 35.5002C17.5 29.5328 19.8705 23.8097 24.0901 19.5901C28.3097 15.3705 34.0326 13 40 13C45.9674 13 51.6903 15.3705 55.9099 19.5901C60.1295 23.8097 62.5 29.5328 62.5 35.5002C62.5 44.2796 56.9104 52.1407 51.7584 57.579C49.1364 60.3467 46.522 62.5972 44.5656 64.155C43.5857 64.9354 42.7663 65.5456 42.1875 65.9636C41.898 66.1727 41.6683 66.3339 41.5085 66.4446C41.4286 66.5 41.3661 66.5427 41.3223 66.5725L41.2707 66.6073L41.2557 66.6174L41.251 66.6206C41.251 66.6206 41.2481 66.6225 40 64.7504ZM40 64.7504L41.2481 66.6225C40.4923 67.1264 39.5065 67.1256 38.7507 66.6217L40 64.7504Z" fill="white"/>
<path fill-rule="evenodd" clip-rule="evenodd" d="M40 31.0001C37.5147 31.0001 35.5 33.0149 35.5 35.5002C35.5 37.9855 37.5147 40.0002 40 40.0002C42.4853 40.0002 44.5 37.9855 44.5 35.5002C44.5 33.0149 42.4853 31.0001 40 31.0001ZM31 35.5002C31 30.5296 35.0294 26.5001 40 26.5001C44.9706 26.5001 49 30.5296 49 35.5002C49 40.4708 44.9706 44.5002 40 44.5002C35.0294 44.5002 31 40.4708 31 35.5002Z" fill="white"/>
</svg>
