<svg width="80" height="80" viewBox="0 0 80 80" fill="none" xmlns="http://www.w3.org/2000/svg">
<path d="M40 11C56.0167 11 69 23.9833 69 40C69 56.0167 56.0167 69 40 69C23.9833 69 11 56.0167 11 40C11 23.9833 23.9833 11 40 11ZM40 15.0455C33.3817 15.0455 27.0344 17.6746 22.3545 22.3545C17.6746 27.0344 15.0455 33.3817 15.0455 40C15.0455 46.6183 17.6746 52.9656 22.3545 57.6455C27.0344 62.3254 33.3817 64.9545 40 64.9545C46.6183 64.9545 52.9656 62.3254 57.6455 57.6455C62.3254 52.9656 64.9545 46.6183 64.9545 40C64.9545 33.3817 62.3254 27.0344 57.6455 22.3545C52.9656 17.6746 46.6183 15.0455 40 15.0455ZM39.5795 31.909C40.696 31.909 41.6008 32.8167 41.6008 33.9332V55.8514C41.581 56.3746 41.3592 56.8698 40.982 57.233C40.6049 57.5961 40.1016 57.799 39.5781 57.799C39.0545 57.799 38.5512 57.5961 38.1741 57.233C37.7969 56.8698 37.5751 56.3746 37.5553 55.8514V33.9303C37.5553 32.8138 38.4601 31.9061 39.5795 31.9061V31.909ZM39.6607 23.818C40.376 23.818 41.062 24.1021 41.5678 24.6079C42.0736 25.1137 42.3577 25.7997 42.3577 26.515C42.3577 27.2303 42.0736 27.9163 41.5678 28.4221C41.062 28.9279 40.376 29.212 39.6607 29.212C38.9454 29.212 38.2594 28.9279 37.7536 28.4221C37.2478 27.9163 36.9637 27.2303 36.9637 26.515C36.9637 25.7997 37.2478 25.1137 37.7536 24.6079C38.2594 24.1021 38.9454 23.818 39.6607 23.818Z" fill="white"/>
</svg>
