<svg width="80" height="80" viewBox="0 0 80 80" fill="none" xmlns="http://www.w3.org/2000/svg">
<path d="M67.1806 27.0001L49.1032 10.5296C48.9307 10.3595 48.7209 10.2244 48.4872 10.1332C48.2536 10.0419 48.0015 9.99664 47.7474 10.0002H16.7575C15.5589 10.0002 14.4093 10.434 13.5618 11.2062C12.7142 11.9784 12.2381 13.0258 12.2381 14.1178V65.8824C12.2381 66.9744 12.7142 68.0218 13.5618 68.794C14.4093 69.5662 15.5589 70 16.7575 70H63.2423C64.4409 70 65.5905 69.5662 66.438 68.794C67.2855 68.0218 67.7617 66.9744 67.7617 65.8824V28.2354C67.7656 28.0039 67.7159 27.7742 67.6157 27.5613C67.5156 27.3485 67.3673 27.1573 67.1806 27.0001ZM49.6842 16.0296L61.1441 26.4707H49.6842V16.0296ZM63.2423 66.4706H16.7575C16.5862 66.4706 16.422 66.4086 16.3009 66.2983C16.1799 66.188 16.1118 66.0384 16.1118 65.8824V14.1178C16.1118 13.9618 16.1799 13.8122 16.3009 13.7019C16.422 13.5916 16.5862 13.5296 16.7575 13.5296H45.8105V28.2354C45.8105 28.7035 46.0146 29.1523 46.3778 29.4833C46.741 29.8142 47.2337 30.0001 47.7474 30.0001H63.8879V65.8824C63.8879 66.0384 63.8199 66.188 63.6988 66.2983C63.5778 66.4086 63.4136 66.4706 63.2423 66.4706ZM52.2667 42.353C52.2667 42.8211 52.0627 43.2699 51.6994 43.6009C51.3362 43.9318 50.8436 44.1177 50.3299 44.1177H29.6699C29.1562 44.1177 28.6636 43.9318 28.3003 43.6009C27.9371 43.2699 27.7331 42.8211 27.7331 42.353C27.7331 41.885 27.9371 41.4361 28.3003 41.1052C28.6636 40.7743 29.1562 40.5883 29.6699 40.5883H50.3299C50.8436 40.5883 51.3362 40.7743 51.6994 41.1052C52.0627 41.4361 52.2667 41.885 52.2667 42.353ZM52.2667 51.7648C52.2667 52.2328 52.0627 52.6817 51.6994 53.0126C51.3362 53.3435 50.8436 53.5295 50.3299 53.5295H29.6699C29.1562 53.5295 28.6636 53.3435 28.3003 53.0126C27.9371 52.6817 27.7331 52.2328 27.7331 51.7648C27.7331 51.2967 27.9371 50.8479 28.3003 50.5169C28.6636 50.186 29.1562 50.0001 29.6699 50.0001H50.3299C50.8436 50.0001 51.3362 50.186 51.6994 50.5169C52.0627 50.8479 52.2667 51.2967 52.2667 51.7648Z" fill="white"/>
</svg>
