<svg width="80" height="80" viewBox="0 0 80 80" fill="none" xmlns="http://www.w3.org/2000/svg">
<path fill-rule="evenodd" clip-rule="evenodd" d="M34.7942 5.00004L34.8077 5L48.3686 5.00001C49.1455 5.0011 49.9145 5.15761 50.6313 5.46052C51.3481 5.76344 51.9986 6.20677 52.5452 6.76498L52.5507 6.77068L68.2899 22.9545L68.2921 22.9568C69.3867 24.0784 70.0003 25.5909 70 27.1667V52.25C70 57.0225 66.2777 61 61.4976 61H53.8462V66.25C53.8462 71.0225 50.1238 75 45.3437 75H18.5096C13.7241 75 10 71.0243 10 66.25V27.75V27.7364C10.0134 25.4235 10.9281 23.2093 12.5455 21.5738C14.163 19.9384 16.3529 19.0136 18.6403 19.0001L18.6538 19H26.1538V13.75L26.1539 13.7364C26.1673 11.4235 27.0819 9.20926 28.6994 7.57381C30.3168 5.93837 32.5068 5.01359 34.7942 5.00004ZM30.7692 19V13.7576C30.7771 12.6752 31.2058 11.6392 31.9629 10.8737C32.7201 10.1081 33.7447 9.67457 34.8152 9.66667H45.7692V23.0834C45.7692 23.0926 45.7693 23.1019 45.7694 23.1112C45.7893 24.7993 46.4614 26.4126 47.642 27.6064C48.8227 28.8002 50.4183 29.4797 52.0879 29.4999C52.092 29.4999 52.0962 29.5 52.1003 29.5C52.1053 29.5 52.1104 29.5 52.1154 29.5H65.3846V52.25C65.3846 54.565 63.6118 56.3334 61.4976 56.3334H53.8462V41.1867V41.1857C53.8462 41.1815 53.8462 41.1774 53.8461 41.1733C53.8461 41.1711 53.8462 41.1689 53.8462 41.1667C53.8462 41.157 53.8461 41.1473 53.846 41.1376C53.8341 39.5765 53.2246 38.0799 52.1441 36.9628L52.1397 36.9582L36.399 20.7729C35.8557 20.2129 35.2071 19.7672 34.4919 19.463C33.7766 19.1586 33.0085 19.0012 32.2324 19H30.7692ZM29.6154 23.6667V37.0834C29.6154 37.0926 29.6154 37.1019 29.6155 37.1112C29.6355 38.7993 30.3076 40.4126 31.4882 41.6064C32.6689 42.8002 34.2644 43.4797 35.934 43.4999C35.9432 43.5 35.9524 43.5 35.9615 43.5H49.2308V66.25C49.2308 68.565 47.4579 70.3334 45.3437 70.3334H18.5096C16.3865 70.3334 14.6154 68.5632 14.6154 66.25V27.7576C14.6232 26.6752 15.052 25.6392 15.8091 24.8737C16.5662 24.1081 17.5908 23.6746 18.6614 23.6667H29.6154ZM47.4903 38.8334L34.2308 25.1992V37.0667C34.2391 37.5324 34.4258 37.977 34.7518 38.3066C35.0778 38.6362 35.5174 38.8249 35.9781 38.8334H47.4903ZM63.6442 24.8334L50.3846 11.1992V23.0665C50.3929 23.5324 50.5796 23.9769 50.9056 24.3066C51.2316 24.6362 51.6713 24.825 52.132 24.8334H63.6442Z" fill="white"/>
</svg>
