<svg width="0" height="0" class="hidden">
  <symbol xmlns="http://www.w3.org/2000/svg" viewBox="0 0 30 30" id="arrow-2">
    <path fill-rule="evenodd" clip-rule="evenodd" d="M9.41107 13.9684C8.86298 14.5469 8.86298 15.4531 9.41107 16.0316L18.4111 25.5316C18.9808 26.133 19.9302 26.1587 20.5316 25.5889C21.133 25.0192 21.1587 24.0698 20.5889 23.4684L12.5663 15L20.5889 6.53162C21.1587 5.93022 21.133 4.98082 20.5316 4.41107C19.9302 3.84133 18.9808 3.86699 18.4111 4.46839L9.41107 13.9684Z"></path>
  </symbol>
  <symbol xmlns="http://www.w3.org/2000/svg" viewBox="0 0 30 30" id="search">
    <path fill-rule="evenodd" clip-rule="evenodd" d="M12.937 20.5887C17.3274 20.5887 20.8866 17.0888 20.8866 12.7715C20.8866 8.45417 17.3274 4.9543 12.937 4.9543C8.54656 4.9543 4.9874 8.45417 4.9874 12.7715C4.9874 17.0888 8.54656 20.5887 12.937 20.5887ZM12.937 22.543C18.4251 22.543 22.874 18.1681 22.874 12.7715C22.874 7.37484 18.4251 3 12.937 3C7.44895 3 3 7.37484 3 12.7715C3 18.1681 7.44895 22.543 12.937 22.543Z"></path>
    <path fill-rule="evenodd" clip-rule="evenodd" d="M18.9309 19.0653C19.319 18.6837 19.9482 18.6837 20.3362 19.0653L26.709 25.3319C27.097 25.7135 27.097 26.3322 26.709 26.7138C26.3209 27.0954 25.6917 27.0954 25.3036 26.7138L18.9309 20.4472C18.5428 20.0656 18.5428 19.4469 18.9309 19.0653Z"></path>
  </symbol>
  <symbol xmlns="http://www.w3.org/2000/svg" viewBox="0 0 30 30" id="arrow-1">
    <path d="M16.1406 24.1178L24.3906 15.8678C24.5156 15.7428 24.6044 15.6074 24.6569 15.4615C24.7085 15.3157 24.7344 15.1594 24.7344 14.9928C24.7344 14.8261 24.7085 14.6699 24.6569 14.524C24.6044 14.3782 24.5156 14.2428 24.3906 14.1178L16.1406 5.86778C15.9115 5.63861 15.6252 5.51861 15.2819 5.50778C14.9377 5.49778 14.6406 5.61778 14.3906 5.86778C14.1406 6.09695 14.0102 6.3832 13.9994 6.72653C13.9894 7.0707 14.1094 7.36778 14.3594 7.61778L20.4844 13.7428H6.51562C6.16146 13.7428 5.86438 13.8624 5.62438 14.1015C5.38521 14.3415 5.26562 14.6386 5.26562 14.9928C5.26562 15.3469 5.38521 15.6436 5.62438 15.8828C5.86438 16.1228 6.16146 16.2428 6.51562 16.2428H20.4844L14.3594 22.3678C14.1302 22.5969 14.0102 22.8886 13.9994 23.2428C13.9894 23.5969 14.1094 23.8886 14.3594 24.1178C14.5885 24.3678 14.8802 24.4928 15.2344 24.4928C15.5885 24.4928 15.8906 24.3678 16.1406 24.1178V24.1178Z"></path>
  </symbol>
</svg>